<svg width="28" height="28" viewBox="0 0 28 28" fill="none" xmlns="http://www.w3.org/2000/svg">
<path fill-rule="evenodd" clip-rule="evenodd" d="M20.9062 3.87935C20.9062 2.10602 22.3463 0.666016 24.1196 0.666016C25.8929 0.666016 27.3329 2.10602 27.3329 3.87935C27.3329 5.65268 25.8929 7.09268 24.1196 7.09268C22.3463 7.09268 20.9062 5.65268 20.9062 3.87935ZM15.7739 17.6777L19.6273 12.7057L19.5739 12.7324C19.7873 12.4391 19.8272 12.0657 19.6806 11.7324C19.5352 11.399 19.2139 11.1724 18.8686 11.1457C18.5072 11.1057 18.1486 11.2657 17.9339 11.5591L14.7086 15.7324L11.0139 12.8257C10.7872 12.6524 10.5206 12.5844 10.2539 12.6124C9.98858 12.6524 9.74858 12.7977 9.58725 13.0111L5.64191 18.1457L5.56058 18.2657C5.33392 18.6911 5.44058 19.2377 5.84058 19.5324C6.02725 19.6524 6.22725 19.7324 6.45392 19.7324C6.76192 19.7457 7.05392 19.5844 7.24058 19.3324L10.5872 15.0244L14.3872 17.8791L14.5072 17.9577C14.9339 18.1844 15.4672 18.0791 15.7739 17.6777ZM18.5993 3.03906C18.546 3.3724 18.5194 3.70573 18.5194 4.03906C18.5194 7.03906 20.946 9.4644 23.9327 9.4644C24.266 9.4644 24.586 9.42573 24.9194 9.3724V20.1311C24.9194 24.6524 22.2527 27.3324 17.7194 27.3324H7.86735C3.33268 27.3324 0.666016 24.6524 0.666016 20.1311V10.2657C0.666016 5.7324 3.33268 3.03906 7.86735 3.03906H18.5993Z" fill="#00A344"/>
</svg>
