<svg width="28" height="28" viewBox="0 0 28 28" fill="none" xmlns="http://www.w3.org/2000/svg">
<path fill-rule="evenodd" clip-rule="evenodd" d="M4.05464 0.666016H8.5613C10.4413 0.666016 11.948 2.19935 11.948 4.08068V8.62602C11.948 10.5193 10.4413 12.0393 8.5613 12.0393H4.05464C2.18797 12.0393 0.667969 10.5193 0.667969 8.62602V4.08068C0.667969 2.19935 2.18797 0.666016 4.05464 0.666016ZM4.05464 15.959H8.5613C10.4413 15.959 11.948 17.4803 11.948 19.3736V23.9189C11.948 25.7989 10.4413 27.3323 8.5613 27.3323H4.05464C2.18797 27.3323 0.667969 25.7989 0.667969 23.9189V19.3736C0.667969 17.4803 2.18797 15.959 4.05464 15.959ZM23.948 0.666016H19.4414C17.5614 0.666016 16.0547 2.19935 16.0547 4.08068V8.62602C16.0547 10.5193 17.5614 12.0393 19.4414 12.0393H23.948C25.8147 12.0393 27.3347 10.5193 27.3347 8.62602V4.08068C27.3347 2.19935 25.8147 0.666016 23.948 0.666016ZM19.4414 15.959H23.948C25.8147 15.959 27.3347 17.4803 27.3347 19.3737V23.919C27.3347 25.799 25.8147 27.3323 23.948 27.3323H19.4414C17.5614 27.3323 16.0547 25.799 16.0547 23.919V19.3737C16.0547 17.4803 17.5614 15.959 19.4414 15.959Z" fill="#00A344"/>
</svg>
