<svg width="21" height="21" viewBox="0 0 21 21" fill="none" xmlns="http://www.w3.org/2000/svg">
<path d="M15.3721 0.66571C18.7731 0.66571 20.6931 2.59471 20.7031 5.99571V15.3357C20.7031 18.7357 18.7731 20.6657 15.3721 20.6657H6.03312C2.63212 20.6657 0.703125 18.7357 0.703125 15.3357V5.99571C0.703125 2.59471 2.63212 0.66571 6.03312 0.66571H15.3721ZM11.2031 4.79571C10.9221 4.62571 10.5821 4.62571 10.3131 4.79571C10.0421 4.96471 9.89313 5.27571 9.92213 5.58571V15.7757C9.97313 16.2057 10.3321 16.5257 10.7521 16.5257C11.1831 16.5257 11.5421 16.2057 11.5821 15.7757V5.58571C11.6221 5.27571 11.4731 4.96471 11.2031 4.79571ZM6.53312 8.07571C6.26312 7.90571 5.92212 7.90571 5.65312 8.07571C5.38212 8.24571 5.23312 8.55471 5.26312 8.86571V15.7757C5.30212 16.2057 5.66213 16.5257 6.09212 16.5257C6.52312 16.5257 6.88212 16.2057 6.92212 15.7757V8.86571C6.95312 8.55471 6.80212 8.24571 6.53312 8.07571ZM15.7921 11.7057C15.5231 11.5357 15.1831 11.5357 14.9031 11.7057C14.6321 11.8757 14.4831 12.1747 14.5231 12.4957V15.7757C14.5631 16.2057 14.9221 16.5257 15.3531 16.5257C15.7731 16.5257 16.1321 16.2057 16.1831 15.7757V12.4957C16.2121 12.1747 16.0631 11.8757 15.7921 11.7057Z" fill="#414D5E"/>
</svg>
