<svg width="28" height="28" viewBox="0 0 28 28" fill="none" xmlns="http://www.w3.org/2000/svg">
<path fill-rule="evenodd" clip-rule="evenodd" d="M14.4361 0.945566C14.6491 0.754445 14.9307 0.654265 15.219 0.667115C21.3134 0.849555 26.4068 5.27375 27.3299 11.1869C27.3358 11.2222 27.3358 11.2582 27.3299 11.2935C27.3498 11.5733 27.2552 11.8493 27.0671 12.0605C26.879 12.2717 26.6129 12.4007 26.3277 12.4189L16.0884 13.0941C15.7498 13.1242 15.4139 13.0127 15.1634 12.7872C14.9129 12.5617 14.7709 12.2431 14.7722 11.9095L14.084 1.85177V1.68592C14.0965 1.40305 14.2232 1.13669 14.4361 0.945566ZM13.7342 15.7235L22.609 15.1549L22.6694 15.1786C23.0505 15.1848 23.4135 15.3393 23.6784 15.6082C23.9434 15.877 24.0886 16.2381 24.0822 16.612C23.7324 21.7081 19.9962 25.9661 14.9117 27.0631C9.82714 28.1601 4.61487 25.8327 2.11834 21.3506C1.38426 20.0597 0.920372 18.638 0.753907 17.1688C0.689344 16.7335 0.661076 16.2937 0.669385 15.8538C0.686212 10.4349 4.54434 5.75753 9.94273 4.61144C10.5962 4.48912 11.2515 4.81541 11.5366 5.40516C11.6076 5.51218 11.6644 5.62762 11.7056 5.74871C11.8068 7.31082 11.9118 8.85813 12.0163 10.3989C12.0989 11.6158 12.1811 12.8285 12.2611 14.0413C12.2569 14.327 12.3018 14.6113 12.3939 14.8824C12.6106 15.4158 13.1498 15.7542 13.7342 15.7235Z" fill="#00A344"/>
</svg>
