<svg width="48" height="48" viewBox="0 0 48 48" fill="none" xmlns="http://www.w3.org/2000/svg">
<path d="M36.9408 33.66L37.7208 39.98C37.9208 41.64 36.1408 42.8 34.7208 41.94L27.8008 37.82C27.3208 37.54 27.2008 36.94 27.4608 36.46C28.4608 34.62 29.0008 32.54 29.0008 30.46C29.0008 23.14 22.7208 17.18 15.0008 17.18C13.4208 17.18 11.8808 17.42 10.4408 17.9C9.70076 18.14 8.98076 17.46 9.16076 16.7C10.9808 9.42 17.9808 4 26.3408 4C36.1008 4 44.0008 11.38 44.0008 20.48C44.0008 25.88 41.2208 30.66 36.9408 33.66Z" fill="#00A451"/>
<path d="M26 30.4602C26 32.8402 25.12 35.0402 23.64 36.7802C21.66 39.1802 18.52 40.7202 15 40.7202L9.78 43.8202C8.9 44.3602 7.78 43.6202 7.9 42.6002L8.4 38.6602C5.72 36.8002 4 33.8202 4 30.4602C4 26.9402 5.88 23.8402 8.76 22.0002C10.54 20.8402 12.68 20.1802 15 20.1802C21.08 20.1802 26 24.7802 26 30.4602Z" fill="#037B35"/>
</svg>
