<svg width="388" height="535" viewBox="0 0 388 535" fill="none" xmlns="http://www.w3.org/2000/svg">
<path fill-rule="evenodd" clip-rule="evenodd" d="M139.419 84.4054C157.015 68.0231 178.648 62.449 201.304 57.8698C275.647 42.8917 337.839 74.2342 354.673 150.503C380.652 268.908 319.718 426.432 213.763 491.411C190.321 505.825 160.865 527.56 118.821 523.571C79.7197 519.87 54.379 493.759 38.1311 462.18C21.4161 429.859 14.1166 391.811 11.7981 364.916C1.7947 247.459 51.5919 80.2349 179.693 9.89407C182.287 8.40956 183.279 5.3637 182.012 2.98408C180.745 0.604469 177.769 -0.286418 175.319 1.05105C43.4614 73.4641 -8.52632 245.43 1.76261 366.317C4.68749 399.819 15.1004 450.064 40.8867 486.635C58.5595 511.58 83.2972 530.229 117.342 533.59C162.069 537.9 193.764 515.193 218.665 499.909C328.06 432.837 391.329 270.14 364.403 147.948C346.361 65.92 279.702 31.9432 199.771 48.0672C175.319 52.9026 151.956 59.3728 132.858 77.1572C130.754 79.1189 130.522 82.3293 132.451 84.2081C134.237 86.2338 137.458 86.2201 139.419 84.4054Z" fill="white"/>
<path d="M97.7657 192H89.1457V177.82H97.7657V179.64H91.1057V184H97.1457V185.84H91.1057V190.18H97.7657V192ZM108.796 195.8H106.936V190.64C106.683 191.133 106.29 191.527 105.756 191.82C105.236 192.113 104.63 192.26 103.936 192.26C102.59 192.26 101.49 191.773 100.636 190.8C99.7962 189.813 99.3762 188.6 99.3762 187.16C99.3762 185.747 99.7828 184.56 100.596 183.6C101.423 182.627 102.523 182.14 103.896 182.14C104.67 182.14 105.316 182.307 105.836 182.64C106.37 182.973 106.75 183.38 106.976 183.86V182.38H108.796V195.8ZM102.056 184.74C101.55 185.353 101.296 186.16 101.296 187.16C101.296 188.16 101.55 188.987 102.056 189.64C102.576 190.28 103.263 190.6 104.116 190.6C104.956 190.6 105.636 190.28 106.156 189.64C106.69 188.987 106.956 188.16 106.956 187.16C106.956 186.16 106.696 185.353 106.176 184.74C105.656 184.113 104.97 183.8 104.116 183.8C103.25 183.8 102.563 184.113 102.056 184.74ZM118.137 190.84C117.884 191.32 117.497 191.687 116.977 191.94C116.457 192.18 115.897 192.3 115.297 192.3C114.204 192.3 113.331 191.94 112.677 191.22C112.024 190.487 111.697 189.56 111.697 188.44V182.38H113.577V188.16C113.577 188.88 113.751 189.473 114.097 189.94C114.457 190.407 115.011 190.64 115.757 190.64C116.504 190.64 117.071 190.42 117.457 189.98C117.844 189.527 118.037 188.927 118.037 188.18V182.38H119.917V190.22C119.917 190.847 119.951 191.44 120.017 192H118.217C118.164 191.707 118.137 191.32 118.137 190.84ZM124.985 192H123.125V182.38H124.985V192ZM123.085 179.7C122.832 179.433 122.705 179.113 122.705 178.74C122.705 178.367 122.832 178.047 123.085 177.78C123.352 177.513 123.672 177.38 124.045 177.38C124.419 177.38 124.739 177.513 125.005 177.78C125.272 178.033 125.405 178.353 125.405 178.74C125.405 179.113 125.272 179.433 125.005 179.7C124.739 179.953 124.419 180.08 124.045 180.08C123.672 180.08 123.352 179.953 123.085 179.7ZM130.704 179.34V182.38H132.784V184.08H130.704V189.08C130.704 189.533 130.804 189.867 131.004 190.08C131.217 190.293 131.564 190.4 132.044 190.4C132.324 190.4 132.571 190.373 132.784 190.32V191.92C132.464 192.04 132.037 192.1 131.504 192.1C130.677 192.1 130.024 191.86 129.544 191.38C129.064 190.9 128.824 190.227 128.824 189.36V184.08H126.984V182.38H127.504C127.997 182.38 128.364 182.247 128.604 181.98C128.857 181.7 128.984 181.34 128.984 180.9V179.34H130.704ZM137.791 196.02H135.731L138.131 190.94L133.991 182.38H136.151L139.151 189.02L142.031 182.38H144.051L137.791 196.02ZM154.584 187.08H149.164V185.44H154.584V187.08ZM162.954 192H161.094V182.38H162.954V192ZM161.054 179.7C160.801 179.433 160.674 179.113 160.674 178.74C160.674 178.367 160.801 178.047 161.054 177.78C161.321 177.513 161.641 177.38 162.014 177.38C162.387 177.38 162.707 177.513 162.974 177.78C163.241 178.033 163.374 178.353 163.374 178.74C163.374 179.113 163.241 179.433 162.974 179.7C162.707 179.953 162.387 180.08 162.014 180.08C161.641 180.08 161.321 179.953 161.054 179.7ZM168.033 186.44V192H166.153V182.38H167.993V183.76C168.633 182.653 169.619 182.1 170.953 182.1C172.059 182.1 172.906 182.453 173.493 183.16C174.093 183.867 174.393 184.78 174.393 185.9V192H172.513V186.22C172.513 184.607 171.766 183.8 170.273 183.8C169.566 183.8 169.013 184.053 168.613 184.56C168.226 185.053 168.033 185.68 168.033 186.44ZM185.623 182.38L181.783 192H179.883L175.983 182.38H178.103L180.843 189.8L183.603 182.38H185.623ZM188.349 186.2H193.609C193.583 185.48 193.343 184.893 192.889 184.44C192.436 183.973 191.796 183.74 190.969 183.74C190.223 183.74 189.609 183.987 189.129 184.48C188.649 184.96 188.389 185.533 188.349 186.2ZM193.889 188.7L195.509 189.26C195.229 190.153 194.709 190.887 193.949 191.46C193.189 192.02 192.269 192.3 191.189 192.3C189.843 192.3 188.696 191.84 187.749 190.92C186.816 189.987 186.349 188.733 186.349 187.16C186.349 185.693 186.803 184.48 187.709 183.52C188.616 182.56 189.696 182.08 190.949 182.08C192.403 182.08 193.536 182.54 194.349 183.46C195.163 184.367 195.569 185.587 195.569 187.12C195.569 187.36 195.556 187.56 195.529 187.72H188.289C188.303 188.573 188.583 189.273 189.129 189.82C189.689 190.367 190.376 190.64 191.189 190.64C192.563 190.64 193.463 189.993 193.889 188.7ZM197.069 189.5L198.769 188.9C198.836 189.42 199.062 189.853 199.449 190.2C199.836 190.533 200.356 190.7 201.009 190.7C201.516 190.7 201.916 190.58 202.209 190.34C202.502 190.087 202.649 189.78 202.649 189.42C202.649 188.78 202.236 188.367 201.409 188.18L199.769 187.82C199.022 187.66 198.436 187.34 198.009 186.86C197.582 186.38 197.369 185.8 197.369 185.12C197.369 184.293 197.702 183.58 198.369 182.98C199.049 182.38 199.856 182.08 200.789 182.08C201.402 182.08 201.949 182.173 202.429 182.36C202.909 182.533 203.282 182.767 203.549 183.06C203.816 183.353 204.016 183.627 204.149 183.88C204.282 184.133 204.382 184.393 204.449 184.66L202.789 185.28C202.762 185.12 202.716 184.967 202.649 184.82C202.582 184.66 202.476 184.487 202.329 184.3C202.196 184.113 201.996 183.967 201.729 183.86C201.462 183.74 201.149 183.68 200.789 183.68C200.322 183.68 199.936 183.807 199.629 184.06C199.336 184.313 199.189 184.613 199.189 184.96C199.189 185.573 199.556 185.96 200.289 186.12L201.849 186.46C202.702 186.647 203.356 186.993 203.809 187.5C204.276 187.993 204.509 188.6 204.509 189.32C204.509 190.08 204.196 190.767 203.569 191.38C202.956 191.993 202.096 192.3 200.989 192.3C199.802 192.3 198.876 192.007 198.209 191.42C197.542 190.82 197.162 190.18 197.069 189.5ZM209.532 179.34V182.38H211.612V184.08H209.532V189.08C209.532 189.533 209.632 189.867 209.832 190.08C210.045 190.293 210.392 190.4 210.872 190.4C211.152 190.4 211.399 190.373 211.612 190.32V191.92C211.292 192.04 210.865 192.1 210.332 192.1C209.505 192.1 208.852 191.86 208.372 191.38C207.892 190.9 207.652 190.227 207.652 189.36V184.08H205.812V182.38H206.332C206.825 182.38 207.192 182.247 207.432 181.98C207.685 181.7 207.812 181.34 207.812 180.9V179.34H209.532ZM215.786 192H213.926V182.38H215.726V183.66C216.02 183.153 216.433 182.767 216.966 182.5C217.5 182.233 218.06 182.1 218.646 182.1C219.273 182.1 219.846 182.253 220.366 182.56C220.886 182.867 221.273 183.32 221.526 183.92C222.193 182.707 223.266 182.1 224.746 182.1C225.666 182.1 226.446 182.413 227.086 183.04C227.74 183.667 228.066 184.573 228.066 185.76V192H226.206V185.96C226.206 185.293 226.033 184.76 225.686 184.36C225.353 183.96 224.846 183.76 224.166 183.76C223.513 183.76 222.98 183.993 222.566 184.46C222.153 184.913 221.946 185.487 221.946 186.18V192H220.066V185.96C220.066 185.293 219.893 184.76 219.546 184.36C219.213 183.96 218.706 183.76 218.026 183.76C217.36 183.76 216.82 183.987 216.406 184.44C215.993 184.893 215.786 185.48 215.786 186.2V192ZM232.295 186.2H237.555C237.528 185.48 237.288 184.893 236.835 184.44C236.381 183.973 235.741 183.74 234.915 183.74C234.168 183.74 233.555 183.987 233.075 184.48C232.595 184.96 232.335 185.533 232.295 186.2ZM237.835 188.7L239.455 189.26C239.175 190.153 238.655 190.887 237.895 191.46C237.135 192.02 236.215 192.3 235.135 192.3C233.788 192.3 232.641 191.84 231.695 190.92C230.761 189.987 230.295 188.733 230.295 187.16C230.295 185.693 230.748 184.48 231.655 183.52C232.561 182.56 233.641 182.08 234.895 182.08C236.348 182.08 237.481 182.54 238.295 183.46C239.108 184.367 239.515 185.587 239.515 187.12C239.515 187.36 239.501 187.56 239.475 187.72H232.235C232.248 188.573 232.528 189.273 233.075 189.82C233.635 190.367 234.321 190.64 235.135 190.64C236.508 190.64 237.408 189.993 237.835 188.7ZM243.794 186.44V192H241.914V182.38H243.754V183.76C244.394 182.653 245.381 182.1 246.714 182.1C247.821 182.1 248.668 182.453 249.254 183.16C249.854 183.867 250.154 184.78 250.154 185.9V192H248.274V186.22C248.274 184.607 247.528 183.8 246.034 183.8C245.328 183.8 244.774 184.053 244.374 184.56C243.988 185.053 243.794 185.68 243.794 186.44ZM255.665 179.34V182.38H257.745V184.08H255.665V189.08C255.665 189.533 255.765 189.867 255.965 190.08C256.178 190.293 256.525 190.4 257.005 190.4C257.285 190.4 257.532 190.373 257.745 190.32V191.92C257.425 192.04 256.998 192.1 256.465 192.1C255.638 192.1 254.985 191.86 254.505 191.38C254.025 190.9 253.785 190.227 253.785 189.36V184.08H251.945V182.38H252.465C252.958 182.38 253.325 182.247 253.565 181.98C253.818 181.7 253.945 181.34 253.945 180.9V179.34H255.665ZM82.3557 209.44H85.1957C86.0357 209.44 86.7024 209.227 87.1957 208.8C87.689 208.36 87.9357 207.773 87.9357 207.04C87.9357 206.293 87.689 205.7 87.1957 205.26C86.7024 204.807 86.0357 204.58 85.1957 204.58H82.3557V209.44ZM85.5557 211.2H82.3557V217H80.3957V202.82H85.5557C86.849 202.82 87.9024 203.22 88.7157 204.02C89.529 204.82 89.9357 205.82 89.9357 207.02C89.9357 208.233 89.529 209.233 88.7157 210.02C87.9024 210.807 86.849 211.2 85.5557 211.2ZM90.9238 214.42C90.9238 213.593 91.1905 212.933 91.7238 212.44C92.2572 211.933 92.9638 211.62 93.8438 211.5L96.4438 211.12C96.9372 211.053 97.1838 210.813 97.1838 210.4C97.1838 209.893 97.0105 209.48 96.6638 209.16C96.3172 208.84 95.7972 208.68 95.1038 208.68C94.4638 208.68 93.9572 208.86 93.5838 209.22C93.2105 209.567 92.9905 210.033 92.9238 210.62L91.1238 210.2C91.2172 209.28 91.6372 208.533 92.3838 207.96C93.1305 207.373 94.0238 207.08 95.0638 207.08C96.4238 207.08 97.4305 207.413 98.0838 208.08C98.7372 208.733 99.0638 209.573 99.0638 210.6V215.42C99.0638 215.993 99.1038 216.52 99.1838 217H97.3438C97.2772 216.6 97.2438 216.167 97.2438 215.7C96.9772 216.127 96.5838 216.5 96.0638 216.82C95.5572 217.14 94.9172 217.3 94.1438 217.3C93.1972 217.3 92.4238 217.02 91.8238 216.46C91.2238 215.887 90.9238 215.207 90.9238 214.42ZM94.4038 215.72C95.2438 215.72 95.9172 215.493 96.4238 215.04C96.9305 214.587 97.1838 213.867 97.1838 212.88V212.44L94.2438 212.88C93.8172 212.947 93.4772 213.1 93.2238 213.34C92.9705 213.58 92.8438 213.907 92.8438 214.32C92.8438 214.693 92.9838 215.02 93.2638 215.3C93.5572 215.58 93.9372 215.72 94.4038 215.72ZM107.333 207.28V209.28C107.053 209.24 106.779 209.22 106.513 209.22C104.753 209.22 103.873 210.207 103.873 212.18V217H101.993V207.38H103.833V209.06C104.419 207.833 105.379 207.22 106.713 207.22C106.926 207.22 107.133 207.24 107.333 207.28ZM112.364 204.34V207.38H114.444V209.08H112.364V214.08C112.364 214.533 112.464 214.867 112.664 215.08C112.877 215.293 113.224 215.4 113.704 215.4C113.984 215.4 114.231 215.373 114.444 215.32V216.92C114.124 217.04 113.697 217.1 113.164 217.1C112.337 217.1 111.684 216.86 111.204 216.38C110.724 215.9 110.484 215.227 110.484 214.36V209.08H108.644V207.38H109.164C109.657 207.38 110.024 207.247 110.264 206.98C110.517 206.7 110.644 206.34 110.644 205.9V204.34H112.364ZM118.814 217H116.954V207.38H118.814V217ZM116.914 204.7C116.66 204.433 116.534 204.113 116.534 203.74C116.534 203.367 116.66 203.047 116.914 202.78C117.18 202.513 117.5 202.38 117.874 202.38C118.247 202.38 118.567 202.513 118.834 202.78C119.1 203.033 119.234 203.353 119.234 203.74C119.234 204.113 119.1 204.433 118.834 204.7C118.567 204.953 118.247 205.08 117.874 205.08C117.5 205.08 117.18 204.953 116.914 204.7ZM126.052 208.82C125.239 208.82 124.545 209.113 123.972 209.7C123.412 210.287 123.132 211.113 123.132 212.18C123.132 213.233 123.412 214.06 123.972 214.66C124.545 215.26 125.245 215.56 126.072 215.56C126.872 215.56 127.479 215.36 127.892 214.96C128.319 214.56 128.605 214.1 128.752 213.58L130.412 214.3C130.145 215.1 129.639 215.8 128.892 216.4C128.159 217 127.219 217.3 126.072 217.3C124.672 217.3 123.512 216.813 122.592 215.84C121.672 214.867 121.212 213.647 121.212 212.18C121.212 210.687 121.672 209.467 122.592 208.52C123.512 207.56 124.665 207.08 126.052 207.08C127.225 207.08 128.172 207.38 128.892 207.98C129.625 208.58 130.105 209.3 130.332 210.14L128.632 210.86C128.485 210.3 128.205 209.82 127.792 209.42C127.379 209.02 126.799 208.82 126.052 208.82ZM134.478 217H132.618V207.38H134.478V217ZM132.578 204.7C132.324 204.433 132.198 204.113 132.198 203.74C132.198 203.367 132.324 203.047 132.578 202.78C132.844 202.513 133.164 202.38 133.538 202.38C133.911 202.38 134.231 202.513 134.498 202.78C134.764 203.033 134.898 203.353 134.898 203.74C134.898 204.113 134.764 204.433 134.498 204.7C134.231 204.953 133.911 205.08 133.538 205.08C133.164 205.08 132.844 204.953 132.578 204.7ZM139.536 220.8H137.676V207.38H139.496V208.88C139.776 208.373 140.196 207.96 140.756 207.64C141.316 207.32 141.97 207.16 142.716 207.16C144.103 207.16 145.183 207.633 145.956 208.58C146.743 209.527 147.136 210.727 147.136 212.18C147.136 213.647 146.73 214.86 145.916 215.82C145.116 216.78 144.03 217.26 142.656 217.26C141.95 217.26 141.323 217.113 140.776 216.82C140.23 216.527 139.816 216.153 139.536 215.7V220.8ZM145.216 212.18C145.216 211.207 144.956 210.407 144.436 209.78C143.93 209.14 143.243 208.82 142.376 208.82C141.523 208.82 140.83 209.14 140.296 209.78C139.776 210.407 139.516 211.207 139.516 212.18C139.516 213.18 139.776 214 140.296 214.64C140.83 215.267 141.523 215.58 142.376 215.58C143.23 215.58 143.916 215.267 144.436 214.64C144.956 214 145.216 213.18 145.216 212.18ZM148.932 214.42C148.932 213.593 149.198 212.933 149.732 212.44C150.265 211.933 150.972 211.62 151.852 211.5L154.452 211.12C154.945 211.053 155.192 210.813 155.192 210.4C155.192 209.893 155.018 209.48 154.672 209.16C154.325 208.84 153.805 208.68 153.112 208.68C152.472 208.68 151.965 208.86 151.592 209.22C151.218 209.567 150.998 210.033 150.932 210.62L149.132 210.2C149.225 209.28 149.645 208.533 150.392 207.96C151.138 207.373 152.032 207.08 153.072 207.08C154.432 207.08 155.438 207.413 156.092 208.08C156.745 208.733 157.072 209.573 157.072 210.6V215.42C157.072 215.993 157.112 216.52 157.192 217H155.352C155.285 216.6 155.252 216.167 155.252 215.7C154.985 216.127 154.592 216.5 154.072 216.82C153.565 217.14 152.925 217.3 152.152 217.3C151.205 217.3 150.432 217.02 149.832 216.46C149.232 215.887 148.932 215.207 148.932 214.42ZM152.412 215.72C153.252 215.72 153.925 215.493 154.432 215.04C154.938 214.587 155.192 213.867 155.192 212.88V212.44L152.252 212.88C151.825 212.947 151.485 213.1 151.232 213.34C150.978 213.58 150.852 213.907 150.852 214.32C150.852 214.693 150.992 215.02 151.272 215.3C151.565 215.58 151.945 215.72 152.412 215.72ZM162.52 204.34V207.38H164.6V209.08H162.52V214.08C162.52 214.533 162.62 214.867 162.82 215.08C163.034 215.293 163.38 215.4 163.86 215.4C164.14 215.4 164.387 215.373 164.6 215.32V216.92C164.28 217.04 163.854 217.1 163.32 217.1C162.494 217.1 161.84 216.86 161.36 216.38C160.88 215.9 160.64 215.227 160.64 214.36V209.08H158.8V207.38H159.32C159.814 207.38 160.18 207.247 160.42 206.98C160.674 206.7 160.8 206.34 160.8 205.9V204.34H162.52ZM168.97 217H167.11V207.38H168.97V217ZM167.07 204.7C166.816 204.433 166.69 204.113 166.69 203.74C166.69 203.367 166.816 203.047 167.07 202.78C167.336 202.513 167.656 202.38 168.03 202.38C168.403 202.38 168.723 202.513 168.99 202.78C169.256 203.033 169.39 203.353 169.39 203.74C169.39 204.113 169.256 204.433 168.99 204.7C168.723 204.953 168.403 205.08 168.03 205.08C167.656 205.08 167.336 204.953 167.07 204.7ZM174.148 214.72C174.735 215.32 175.448 215.62 176.288 215.62C177.128 215.62 177.835 215.32 178.408 214.72C178.995 214.107 179.288 213.26 179.288 212.18C179.288 211.113 178.995 210.28 178.408 209.68C177.835 209.067 177.128 208.76 176.288 208.76C175.448 208.76 174.735 209.067 174.148 209.68C173.575 210.28 173.288 211.113 173.288 212.18C173.288 213.26 173.575 214.107 174.148 214.72ZM172.748 208.54C173.682 207.567 174.862 207.08 176.288 207.08C177.715 207.08 178.888 207.567 179.808 208.54C180.742 209.5 181.208 210.713 181.208 212.18C181.208 213.66 180.748 214.887 179.828 215.86C178.908 216.82 177.728 217.3 176.288 217.3C174.848 217.3 173.668 216.82 172.748 215.86C171.828 214.887 171.368 213.66 171.368 212.18C171.368 210.713 171.828 209.5 172.748 208.54ZM185.494 211.44V217H183.614V207.38H185.454V208.76C186.094 207.653 187.08 207.1 188.414 207.1C189.52 207.1 190.367 207.453 190.954 208.16C191.554 208.867 191.854 209.78 191.854 210.9V217H189.974V211.22C189.974 209.607 189.227 208.8 187.734 208.8C187.027 208.8 186.474 209.053 186.074 209.56C185.687 210.053 185.494 210.68 185.494 211.44ZM199.244 214.42C199.244 213.593 199.511 212.933 200.044 212.44C200.577 211.933 201.284 211.62 202.164 211.5L204.764 211.12C205.257 211.053 205.504 210.813 205.504 210.4C205.504 209.893 205.331 209.48 204.984 209.16C204.637 208.84 204.117 208.68 203.424 208.68C202.784 208.68 202.277 208.86 201.904 209.22C201.531 209.567 201.311 210.033 201.244 210.62L199.444 210.2C199.537 209.28 199.957 208.533 200.704 207.96C201.451 207.373 202.344 207.08 203.384 207.08C204.744 207.08 205.751 207.413 206.404 208.08C207.057 208.733 207.384 209.573 207.384 210.6V215.42C207.384 215.993 207.424 216.52 207.504 217H205.664C205.597 216.6 205.564 216.167 205.564 215.7C205.297 216.127 204.904 216.5 204.384 216.82C203.877 217.14 203.237 217.3 202.464 217.3C201.517 217.3 200.744 217.02 200.144 216.46C199.544 215.887 199.244 215.207 199.244 214.42ZM202.724 215.72C203.564 215.72 204.237 215.493 204.744 215.04C205.251 214.587 205.504 213.867 205.504 212.88V212.44L202.564 212.88C202.137 212.947 201.797 213.1 201.544 213.34C201.291 213.58 201.164 213.907 201.164 214.32C201.164 214.693 201.304 215.02 201.584 215.3C201.877 215.58 202.257 215.72 202.724 215.72ZM212.833 204.34V207.38H214.913V209.08H212.833V214.08C212.833 214.533 212.933 214.867 213.133 215.08C213.346 215.293 213.693 215.4 214.173 215.4C214.453 215.4 214.7 215.373 214.913 215.32V216.92C214.593 217.04 214.166 217.1 213.633 217.1C212.806 217.1 212.153 216.86 211.673 216.38C211.193 215.9 210.953 215.227 210.953 214.36V209.08H209.113V207.38H209.633C210.126 207.38 210.493 207.247 210.733 206.98C210.986 206.7 211.113 206.34 211.113 205.9V204.34H212.833ZM219.942 204.34V207.38H222.022V209.08H219.942V214.08C219.942 214.533 220.042 214.867 220.242 215.08C220.456 215.293 220.802 215.4 221.282 215.4C221.562 215.4 221.809 215.373 222.022 215.32V216.92C221.702 217.04 221.276 217.1 220.742 217.1C219.916 217.1 219.262 216.86 218.782 216.38C218.302 215.9 218.062 215.227 218.062 214.36V209.08H216.222V207.38H216.742C217.236 207.38 217.602 207.247 217.842 206.98C218.096 206.7 218.222 206.34 218.222 205.9V204.34H219.942ZM229.676 207.28V209.28C229.396 209.24 229.123 209.22 228.856 209.22C227.096 209.22 226.216 210.207 226.216 212.18V217H224.336V207.38H226.176V209.06C226.763 207.833 227.723 207.22 229.056 207.22C229.27 207.22 229.476 207.24 229.676 207.28ZM231.08 214.42C231.08 213.593 231.347 212.933 231.88 212.44C232.413 211.933 233.12 211.62 234 211.5L236.6 211.12C237.093 211.053 237.34 210.813 237.34 210.4C237.34 209.893 237.167 209.48 236.82 209.16C236.473 208.84 235.953 208.68 235.26 208.68C234.62 208.68 234.113 208.86 233.74 209.22C233.367 209.567 233.147 210.033 233.08 210.62L231.28 210.2C231.373 209.28 231.793 208.533 232.54 207.96C233.287 207.373 234.18 207.08 235.22 207.08C236.58 207.08 237.587 207.413 238.24 208.08C238.893 208.733 239.22 209.573 239.22 210.6V215.42C239.22 215.993 239.26 216.52 239.34 217H237.5C237.433 216.6 237.4 216.167 237.4 215.7C237.133 216.127 236.74 216.5 236.22 216.82C235.713 217.14 235.073 217.3 234.3 217.3C233.353 217.3 232.58 217.02 231.98 216.46C231.38 215.887 231.08 215.207 231.08 214.42ZM234.56 215.72C235.4 215.72 236.073 215.493 236.58 215.04C237.087 214.587 237.34 213.867 237.34 212.88V212.44L234.4 212.88C233.973 212.947 233.633 213.1 233.38 213.34C233.127 213.58 233 213.907 233 214.32C233 214.693 233.14 215.02 233.42 215.3C233.713 215.58 234.093 215.72 234.56 215.72ZM246.189 208.82C245.375 208.82 244.682 209.113 244.109 209.7C243.549 210.287 243.269 211.113 243.269 212.18C243.269 213.233 243.549 214.06 244.109 214.66C244.682 215.26 245.382 215.56 246.209 215.56C247.009 215.56 247.615 215.36 248.029 214.96C248.455 214.56 248.742 214.1 248.889 213.58L250.549 214.3C250.282 215.1 249.775 215.8 249.029 216.4C248.295 217 247.355 217.3 246.209 217.3C244.809 217.3 243.649 216.813 242.729 215.84C241.809 214.867 241.349 213.647 241.349 212.18C241.349 210.687 241.809 209.467 242.729 208.52C243.649 207.56 244.802 207.08 246.189 207.08C247.362 207.08 248.309 207.38 249.029 207.98C249.762 208.58 250.242 209.3 250.469 210.14L248.769 210.86C248.622 210.3 248.342 209.82 247.929 209.42C247.515 209.02 246.935 208.82 246.189 208.82ZM255.274 204.34V207.38H257.354V209.08H255.274V214.08C255.274 214.533 255.374 214.867 255.574 215.08C255.788 215.293 256.134 215.4 256.614 215.4C256.894 215.4 257.141 215.373 257.354 215.32V216.92C257.034 217.04 256.608 217.1 256.074 217.1C255.248 217.1 254.594 216.86 254.114 216.38C253.634 215.9 253.394 215.227 253.394 214.36V209.08H251.554V207.38H252.074C252.568 207.38 252.934 207.247 253.174 206.98C253.428 206.7 253.554 206.34 253.554 205.9V204.34H255.274ZM259.061 214.5L260.761 213.9C260.828 214.42 261.055 214.853 261.441 215.2C261.828 215.533 262.348 215.7 263.001 215.7C263.508 215.7 263.908 215.58 264.201 215.34C264.495 215.087 264.641 214.78 264.641 214.42C264.641 213.78 264.228 213.367 263.401 213.18L261.761 212.82C261.015 212.66 260.428 212.34 260.001 211.86C259.575 211.38 259.361 210.8 259.361 210.12C259.361 209.293 259.695 208.58 260.361 207.98C261.041 207.38 261.848 207.08 262.781 207.08C263.395 207.08 263.941 207.173 264.421 207.36C264.901 207.533 265.275 207.767 265.541 208.06C265.808 208.353 266.008 208.627 266.141 208.88C266.275 209.133 266.375 209.393 266.441 209.66L264.781 210.28C264.755 210.12 264.708 209.967 264.641 209.82C264.575 209.66 264.468 209.487 264.321 209.3C264.188 209.113 263.988 208.967 263.721 208.86C263.455 208.74 263.141 208.68 262.781 208.68C262.315 208.68 261.928 208.807 261.621 209.06C261.328 209.313 261.181 209.613 261.181 209.96C261.181 210.573 261.548 210.96 262.281 211.12L263.841 211.46C264.695 211.647 265.348 211.993 265.801 212.5C266.268 212.993 266.501 213.6 266.501 214.32C266.501 215.08 266.188 215.767 265.561 216.38C264.948 216.993 264.088 217.3 262.981 217.3C261.795 217.3 260.868 217.007 260.201 216.42C259.535 215.82 259.155 215.18 259.061 214.5ZM71.7005 260.55L64.3005 260.5C64.1005 259.967 64.0005 259.067 64.0005 257.8C64.0005 254.733 65.0838 252.133 67.2505 250C69.4505 247.867 72.4172 246.8 76.1505 246.8C79.7838 246.8 82.7005 247.833 84.9005 249.9C87.1005 251.933 88.2005 254.45 88.2005 257.45C88.2005 261.65 86.0672 265.017 81.8005 267.55L75.6505 271.2C74.5505 271.9 73.8172 272.633 73.4505 273.4H88.4505V280H63.8005C63.8005 276.8 64.3672 274.033 65.5005 271.7C66.6672 269.333 68.6505 267.333 71.4505 265.7L76.7505 262.6C78.0505 261.833 78.9672 261.083 79.5005 260.35C80.0338 259.583 80.3005 258.667 80.3005 257.6C80.3005 256.5 79.9172 255.583 79.1505 254.85C78.4172 254.117 77.3505 253.75 75.9505 253.75C74.4838 253.75 73.3505 254.2 72.5505 255.1C71.7838 256 71.4005 257.15 71.4005 258.55C71.4005 259.25 71.5005 259.917 71.7005 260.55ZM91.0896 270.75L98.3896 269.25C98.4562 270.583 98.9562 271.733 99.8896 272.7C100.856 273.633 102.106 274.1 103.64 274.1C105.006 274.1 106.156 273.683 107.09 272.85C108.023 271.983 108.49 270.833 108.49 269.4C108.49 267.867 107.99 266.683 106.99 265.85C106.023 265.017 104.84 264.6 103.44 264.6C101.54 264.6 100.023 265.3 98.8896 266.7L97.7896 266.3C97.0229 266.067 96.2062 265.817 95.3396 265.55C94.5062 265.283 93.7229 265.033 92.9896 264.8C92.2562 264.567 91.8729 264.433 91.8396 264.4L95.4896 247.55H114.34V254.15H100.94L99.6396 260.25C100.973 259.083 102.806 258.5 105.14 258.5C108.54 258.5 111.256 259.45 113.29 261.35C115.323 263.25 116.34 265.917 116.34 269.35C116.34 272.517 115.19 275.217 112.89 277.45C110.623 279.683 107.54 280.8 103.64 280.8C100.173 280.8 97.2562 279.8 94.8896 277.8C92.5562 275.767 91.2896 273.417 91.0896 270.75ZM124.923 255.25C124.923 256.25 125.206 257.05 125.773 257.65C126.339 258.25 127.073 258.55 127.973 258.55C128.839 258.55 129.556 258.25 130.123 257.65C130.689 257.017 130.973 256.217 130.973 255.25C130.973 254.317 130.689 253.55 130.123 252.95C129.556 252.35 128.839 252.05 127.973 252.05C127.106 252.05 126.373 252.35 125.773 252.95C125.206 253.55 124.923 254.317 124.923 255.25ZM119.523 255.25C119.523 252.95 120.356 251 122.023 249.4C123.689 247.767 125.673 246.95 127.973 246.95C130.273 246.95 132.256 247.767 133.923 249.4C135.589 251 136.423 252.95 136.423 255.25C136.423 257.617 135.589 259.6 133.923 261.2C132.289 262.767 130.289 263.55 127.923 263.55C125.589 263.55 123.606 262.75 121.973 261.15C120.339 259.55 119.523 257.583 119.523 255.25ZM147.773 272.35C147.773 273.35 148.056 274.15 148.623 274.75C149.189 275.35 149.923 275.65 150.823 275.65C151.689 275.65 152.406 275.35 152.973 274.75C153.539 274.117 153.823 273.317 153.823 272.35C153.823 271.417 153.539 270.65 152.973 270.05C152.406 269.45 151.689 269.15 150.823 269.15C149.956 269.15 149.223 269.45 148.623 270.05C148.056 270.65 147.773 271.417 147.773 272.35ZM142.373 272.35C142.373 270.05 143.206 268.1 144.873 266.5C146.539 264.867 148.523 264.05 150.823 264.05C153.123 264.05 155.106 264.867 156.773 266.5C158.439 268.1 159.273 270.05 159.273 272.35C159.273 274.717 158.439 276.7 156.773 278.3C155.139 279.867 153.139 280.65 150.773 280.65C148.439 280.65 146.456 279.85 144.823 278.25C143.189 276.65 142.373 274.683 142.373 272.35ZM131.273 280H124.873L147.573 247.55H154.023L131.273 280ZM188.241 268.35H173.241V261.5H188.241V268.35ZM191.974 273.25V265.25L205.474 247.55H214.874V266.65H220.074V273.25H214.874V280H206.974V273.25H191.974ZM206.974 266.65V255.95L198.824 266.65H206.974ZM231.794 256.75C230.994 258.45 230.594 260.8 230.594 263.8C230.594 266.8 230.994 269.15 231.794 270.85C232.794 272.85 234.378 273.85 236.544 273.85C238.711 273.85 240.294 272.85 241.294 270.85C242.128 269.183 242.544 266.833 242.544 263.8C242.544 260.767 242.128 258.417 241.294 256.75C240.294 254.75 238.711 253.75 236.544 253.75C234.378 253.75 232.794 254.75 231.794 256.75ZM225.544 275.25C223.644 272.383 222.694 268.567 222.694 263.8C222.694 259.033 223.644 255.217 225.544 252.35C227.978 248.65 231.644 246.8 236.544 246.8C241.478 246.8 245.161 248.65 247.594 252.35C249.494 255.217 250.444 259.033 250.444 263.8C250.444 268.567 249.494 272.383 247.594 275.25C245.094 278.95 241.411 280.8 236.544 280.8C231.711 280.8 228.044 278.95 225.544 275.25ZM258.614 255.25C258.614 256.25 258.897 257.05 259.464 257.65C260.031 258.25 260.764 258.55 261.664 258.55C262.531 258.55 263.247 258.25 263.814 257.65C264.381 257.017 264.664 256.217 264.664 255.25C264.664 254.317 264.381 253.55 263.814 252.95C263.247 252.35 262.531 252.05 261.664 252.05C260.797 252.05 260.064 252.35 259.464 252.95C258.897 253.55 258.614 254.317 258.614 255.25ZM253.214 255.25C253.214 252.95 254.047 251 255.714 249.4C257.381 247.767 259.364 246.95 261.664 246.95C263.964 246.95 265.947 247.767 267.614 249.4C269.281 251 270.114 252.95 270.114 255.25C270.114 257.617 269.281 259.6 267.614 261.2C265.981 262.767 263.981 263.55 261.614 263.55C259.281 263.55 257.297 262.75 255.664 261.15C254.031 259.55 253.214 257.583 253.214 255.25ZM281.464 272.35C281.464 273.35 281.747 274.15 282.314 274.75C282.881 275.35 283.614 275.65 284.514 275.65C285.381 275.65 286.097 275.35 286.664 274.75C287.231 274.117 287.514 273.317 287.514 272.35C287.514 271.417 287.231 270.65 286.664 270.05C286.097 269.45 285.381 269.15 284.514 269.15C283.647 269.15 282.914 269.45 282.314 270.05C281.747 270.65 281.464 271.417 281.464 272.35ZM276.064 272.35C276.064 270.05 276.897 268.1 278.564 266.5C280.231 264.867 282.214 264.05 284.514 264.05C286.814 264.05 288.797 264.867 290.464 266.5C292.131 268.1 292.964 270.05 292.964 272.35C292.964 274.717 292.131 276.7 290.464 278.3C288.831 279.867 286.831 280.65 284.464 280.65C282.131 280.65 280.147 279.85 278.514 278.25C276.881 276.65 276.064 274.683 276.064 272.35ZM264.964 280H258.564L281.264 247.55H287.714L264.964 280ZM60.8021 324L57.5621 318.2H55.4421V324H53.4621V309.82H58.8021C60.1088 309.82 61.1554 310.227 61.9421 311.04C62.7421 311.84 63.1421 312.84 63.1421 314.04C63.1421 315.067 62.8354 315.947 62.2221 316.68C61.6088 317.4 60.7688 317.86 59.7021 318.06L63.0821 324H60.8021ZM55.4421 316.44H58.4421C59.2421 316.44 59.8888 316.227 60.3821 315.8C60.8754 315.36 61.1221 314.773 61.1221 314.04C61.1221 313.293 60.8754 312.7 60.3821 312.26C59.8888 311.807 59.2421 311.58 58.4421 311.58H55.4421V316.44ZM66.4743 318.2H71.7343C71.7076 317.48 71.4676 316.893 71.0143 316.44C70.561 315.973 69.921 315.74 69.0943 315.74C68.3476 315.74 67.7343 315.987 67.2543 316.48C66.7743 316.96 66.5143 317.533 66.4743 318.2ZM72.0143 320.7L73.6343 321.26C73.3543 322.153 72.8343 322.887 72.0743 323.46C71.3143 324.02 70.3943 324.3 69.3143 324.3C67.9676 324.3 66.821 323.84 65.8743 322.92C64.941 321.987 64.4743 320.733 64.4743 319.16C64.4743 317.693 64.9276 316.48 65.8343 315.52C66.741 314.56 67.821 314.08 69.0743 314.08C70.5276 314.08 71.661 314.54 72.4743 315.46C73.2876 316.367 73.6943 317.587 73.6943 319.12C73.6943 319.36 73.681 319.56 73.6543 319.72H66.4143C66.4276 320.573 66.7076 321.273 67.2543 321.82C67.8143 322.367 68.501 322.64 69.3143 322.64C70.6876 322.64 71.5876 321.993 72.0143 320.7ZM78.6141 311.34V314.38H80.6941V316.08H78.6141V321.08C78.6141 321.533 78.7141 321.867 78.9141 322.08C79.1275 322.293 79.4741 322.4 79.9541 322.4C80.2341 322.4 80.4808 322.373 80.6941 322.32V323.92C80.3741 324.04 79.9475 324.1 79.4141 324.1C78.5875 324.1 77.9341 323.86 77.4541 323.38C76.9741 322.9 76.7341 322.227 76.7341 321.36V316.08H74.8941V314.38H75.4141C75.9075 314.38 76.2741 314.247 76.5141 313.98C76.7675 313.7 76.8941 313.34 76.8941 312.9V311.34H78.6141ZM89.5435 322.84C89.2902 323.32 88.9035 323.687 88.3835 323.94C87.8635 324.18 87.3035 324.3 86.7035 324.3C85.6102 324.3 84.7368 323.94 84.0835 323.22C83.4302 322.487 83.1035 321.56 83.1035 320.44V314.38H84.9835V320.16C84.9835 320.88 85.1568 321.473 85.5035 321.94C85.8635 322.407 86.4168 322.64 87.1635 322.64C87.9102 322.64 88.4768 322.42 88.8635 321.98C89.2502 321.527 89.4435 320.927 89.4435 320.18V314.38H91.3235V322.22C91.3235 322.847 91.3568 323.44 91.4235 324H89.6235C89.5702 323.707 89.5435 323.32 89.5435 322.84ZM99.8716 314.28V316.28C99.5916 316.24 99.3183 316.22 99.0516 316.22C97.2916 316.22 96.4116 317.207 96.4116 319.18V324H94.5316V314.38H96.3716V316.06C96.9583 314.833 97.9183 314.22 99.2516 314.22C99.465 314.22 99.6716 314.24 99.8716 314.28ZM103.755 318.44V324H101.875V314.38H103.715V315.76C104.355 314.653 105.342 314.1 106.675 314.1C107.782 314.1 108.629 314.453 109.215 315.16C109.815 315.867 110.115 316.78 110.115 317.9V324H108.235V318.22C108.235 316.607 107.489 315.8 105.995 315.8C105.289 315.8 104.735 316.053 104.335 316.56C103.949 317.053 103.755 317.68 103.755 318.44ZM120.086 321.72C120.673 322.32 121.386 322.62 122.226 322.62C123.066 322.62 123.773 322.32 124.346 321.72C124.933 321.107 125.226 320.26 125.226 319.18C125.226 318.113 124.933 317.28 124.346 316.68C123.773 316.067 123.066 315.76 122.226 315.76C121.386 315.76 120.673 316.067 120.086 316.68C119.513 317.28 119.226 318.113 119.226 319.18C119.226 320.26 119.513 321.107 120.086 321.72ZM118.686 315.54C119.619 314.567 120.799 314.08 122.226 314.08C123.653 314.08 124.826 314.567 125.746 315.54C126.679 316.5 127.146 317.713 127.146 319.18C127.146 320.66 126.686 321.887 125.766 322.86C124.846 323.82 123.666 324.3 122.226 324.3C120.786 324.3 119.606 323.82 118.686 322.86C117.766 321.887 117.306 320.66 117.306 319.18C117.306 317.713 117.766 316.5 118.686 315.54ZM131.431 318.44V324H129.551V314.38H131.391V315.76C132.031 314.653 133.018 314.1 134.351 314.1C135.458 314.1 136.305 314.453 136.891 315.16C137.491 315.867 137.791 316.78 137.791 317.9V324H135.911V318.22C135.911 316.607 135.165 315.8 133.671 315.8C132.965 315.8 132.411 316.053 132.011 316.56C131.625 317.053 131.431 317.68 131.431 318.44ZM147.642 324H145.782V314.38H147.642V324ZM145.742 311.7C145.488 311.433 145.362 311.113 145.362 310.74C145.362 310.367 145.488 310.047 145.742 309.78C146.008 309.513 146.328 309.38 146.702 309.38C147.075 309.38 147.395 309.513 147.662 309.78C147.928 310.033 148.062 310.353 148.062 310.74C148.062 311.113 147.928 311.433 147.662 311.7C147.395 311.953 147.075 312.08 146.702 312.08C146.328 312.08 146.008 311.953 145.742 311.7ZM152.72 318.44V324H150.84V314.38H152.68V315.76C153.32 314.653 154.307 314.1 155.64 314.1C156.747 314.1 157.594 314.453 158.18 315.16C158.78 315.867 159.08 316.78 159.08 317.9V324H157.2V318.22C157.2 316.607 156.454 315.8 154.96 315.8C154.254 315.8 153.7 316.053 153.3 316.56C152.914 317.053 152.72 317.68 152.72 318.44ZM170.311 314.38L166.471 324H164.571L160.671 314.38H162.791L165.531 321.8L168.291 314.38H170.311ZM173.037 318.2H178.297C178.27 317.48 178.03 316.893 177.577 316.44C177.123 315.973 176.483 315.74 175.657 315.74C174.91 315.74 174.297 315.987 173.817 316.48C173.337 316.96 173.077 317.533 173.037 318.2ZM178.577 320.7L180.197 321.26C179.917 322.153 179.397 322.887 178.637 323.46C177.877 324.02 176.957 324.3 175.877 324.3C174.53 324.3 173.383 323.84 172.437 322.92C171.503 321.987 171.037 320.733 171.037 319.16C171.037 317.693 171.49 316.48 172.397 315.52C173.303 314.56 174.383 314.08 175.637 314.08C177.09 314.08 178.223 314.54 179.037 315.46C179.85 316.367 180.257 317.587 180.257 319.12C180.257 319.36 180.243 319.56 180.217 319.72H172.977C172.99 320.573 173.27 321.273 173.817 321.82C174.377 322.367 175.063 322.64 175.877 322.64C177.25 322.64 178.15 321.993 178.577 320.7ZM181.757 321.5L183.457 320.9C183.523 321.42 183.75 321.853 184.137 322.2C184.523 322.533 185.043 322.7 185.697 322.7C186.203 322.7 186.603 322.58 186.897 322.34C187.19 322.087 187.337 321.78 187.337 321.42C187.337 320.78 186.923 320.367 186.097 320.18L184.457 319.82C183.71 319.66 183.123 319.34 182.697 318.86C182.27 318.38 182.057 317.8 182.057 317.12C182.057 316.293 182.39 315.58 183.057 314.98C183.737 314.38 184.543 314.08 185.477 314.08C186.09 314.08 186.637 314.173 187.117 314.36C187.597 314.533 187.97 314.767 188.237 315.06C188.503 315.353 188.703 315.627 188.837 315.88C188.97 316.133 189.07 316.393 189.137 316.66L187.477 317.28C187.45 317.12 187.403 316.967 187.337 316.82C187.27 316.66 187.163 316.487 187.017 316.3C186.883 316.113 186.683 315.967 186.417 315.86C186.15 315.74 185.837 315.68 185.477 315.68C185.01 315.68 184.623 315.807 184.317 316.06C184.023 316.313 183.877 316.613 183.877 316.96C183.877 317.573 184.243 317.96 184.977 318.12L186.537 318.46C187.39 318.647 188.043 318.993 188.497 319.5C188.963 319.993 189.197 320.6 189.197 321.32C189.197 322.08 188.883 322.767 188.257 323.38C187.643 323.993 186.783 324.3 185.677 324.3C184.49 324.3 183.563 324.007 182.897 323.42C182.23 322.82 181.85 322.18 181.757 321.5ZM194.22 311.34V314.38H196.3V316.08H194.22V321.08C194.22 321.533 194.32 321.867 194.52 322.08C194.733 322.293 195.08 322.4 195.56 322.4C195.84 322.4 196.086 322.373 196.3 322.32V323.92C195.98 324.04 195.553 324.1 195.02 324.1C194.193 324.1 193.54 323.86 193.06 323.38C192.58 322.9 192.34 322.227 192.34 321.36V316.08H190.5V314.38H191.02C191.513 314.38 191.88 314.247 192.12 313.98C192.373 313.7 192.5 313.34 192.5 312.9V311.34H194.22ZM200.474 324H198.614V314.38H200.414V315.66C200.707 315.153 201.12 314.767 201.654 314.5C202.187 314.233 202.747 314.1 203.334 314.1C203.96 314.1 204.534 314.253 205.054 314.56C205.574 314.867 205.96 315.32 206.214 315.92C206.88 314.707 207.954 314.1 209.434 314.1C210.354 314.1 211.134 314.413 211.774 315.04C212.427 315.667 212.754 316.573 212.754 317.76V324H210.894V317.96C210.894 317.293 210.72 316.76 210.374 316.36C210.04 315.96 209.534 315.76 208.854 315.76C208.2 315.76 207.667 315.993 207.254 316.46C206.84 316.913 206.634 317.487 206.634 318.18V324H204.754V317.96C204.754 317.293 204.58 316.76 204.234 316.36C203.9 315.96 203.394 315.76 202.714 315.76C202.047 315.76 201.507 315.987 201.094 316.44C200.68 316.893 200.474 317.48 200.474 318.2V324ZM216.982 318.2H222.242C222.215 317.48 221.975 316.893 221.522 316.44C221.069 315.973 220.429 315.74 219.602 315.74C218.855 315.74 218.242 315.987 217.762 316.48C217.282 316.96 217.022 317.533 216.982 318.2ZM222.522 320.7L224.142 321.26C223.862 322.153 223.342 322.887 222.582 323.46C221.822 324.02 220.902 324.3 219.822 324.3C218.475 324.3 217.329 323.84 216.382 322.92C215.449 321.987 214.982 320.733 214.982 319.16C214.982 317.693 215.435 316.48 216.342 315.52C217.249 314.56 218.329 314.08 219.582 314.08C221.035 314.08 222.169 314.54 222.982 315.46C223.795 316.367 224.202 317.587 224.202 319.12C224.202 319.36 224.189 319.56 224.162 319.72H216.922C216.935 320.573 217.215 321.273 217.762 321.82C218.322 322.367 219.009 322.64 219.822 322.64C221.195 322.64 222.095 321.993 222.522 320.7ZM228.482 318.44V324H226.602V314.38H228.442V315.76C229.082 314.653 230.069 314.1 231.402 314.1C232.509 314.1 233.355 314.453 233.942 315.16C234.542 315.867 234.842 316.78 234.842 317.9V324H232.962V318.22C232.962 316.607 232.215 315.8 230.722 315.8C230.015 315.8 229.462 316.053 229.062 316.56C228.675 317.053 228.482 317.68 228.482 318.44ZM240.352 311.34V314.38H242.432V316.08H240.352V321.08C240.352 321.533 240.452 321.867 240.652 322.08C240.866 322.293 241.212 322.4 241.692 322.4C241.972 322.4 242.219 322.373 242.432 322.32V323.92C242.112 324.04 241.686 324.1 241.152 324.1C240.326 324.1 239.672 323.86 239.192 323.38C238.712 322.9 238.472 322.227 238.472 321.36V316.08H236.632V314.38H237.152C237.646 314.38 238.012 314.247 238.252 313.98C238.506 313.7 238.632 313.34 238.632 312.9V311.34H240.352ZM253.242 327.2C250.708 324.613 249.442 321.433 249.442 317.66C249.442 313.887 250.708 310.707 253.242 308.12L254.382 309.12C252.168 311.6 251.062 314.447 251.062 317.66C251.062 320.873 252.168 323.72 254.382 326.2L253.242 327.2ZM263.517 324L260.277 318.2H258.157V324H256.177V309.82H261.517C262.824 309.82 263.87 310.227 264.657 311.04C265.457 311.84 265.857 312.84 265.857 314.04C265.857 315.067 265.55 315.947 264.937 316.68C264.324 317.4 263.484 317.86 262.417 318.06L265.797 324H263.517ZM258.157 316.44H261.157C261.957 316.44 262.604 316.227 263.097 315.8C263.59 315.36 263.837 314.773 263.837 314.04C263.837 313.293 263.59 312.7 263.097 312.26C262.604 311.807 261.957 311.58 261.157 311.58H258.157V316.44ZM271.062 312.8C270.062 313.773 269.562 315.14 269.562 316.9C269.562 318.66 270.062 320.033 271.062 321.02C272.062 322.007 273.269 322.5 274.682 322.5C276.095 322.5 277.302 322.007 278.302 321.02C279.302 320.033 279.802 318.66 279.802 316.9C279.802 315.14 279.302 313.773 278.302 312.8C277.302 311.813 276.095 311.32 274.682 311.32C273.269 311.32 272.062 311.813 271.062 312.8ZM267.562 316.9C267.562 315.753 267.762 314.707 268.162 313.76C268.575 312.813 269.115 312.04 269.782 311.44C270.462 310.827 271.222 310.353 272.062 310.02C272.902 309.687 273.775 309.52 274.682 309.52C275.589 309.52 276.462 309.687 277.302 310.02C278.142 310.353 278.895 310.827 279.562 311.44C280.242 312.04 280.782 312.813 281.182 313.76C281.595 314.707 281.802 315.753 281.802 316.9C281.802 318.42 281.449 319.753 280.742 320.9C280.049 322.047 279.169 322.9 278.102 323.46C277.035 324.02 275.895 324.3 274.682 324.3C273.469 324.3 272.329 324.02 271.262 323.46C270.195 322.9 269.309 322.047 268.602 320.9C267.909 319.753 267.562 318.42 267.562 316.9ZM286.497 324H284.497V309.82H286.497V324ZM289.443 308.12C291.976 310.707 293.243 313.887 293.243 317.66C293.243 321.433 291.976 324.613 289.443 327.2L288.303 326.2C290.516 323.72 291.623 320.873 291.623 317.66C291.623 314.447 290.516 311.6 288.303 309.12L289.443 308.12ZM98.3155 349H96.4555V339.38H98.3155V349ZM96.4155 336.7C96.1621 336.433 96.0355 336.113 96.0355 335.74C96.0355 335.367 96.1621 335.047 96.4155 334.78C96.6821 334.513 97.0021 334.38 97.3755 334.38C97.7488 334.38 98.0688 334.513 98.3355 334.78C98.6021 335.033 98.7355 335.353 98.7355 335.74C98.7355 336.113 98.6021 336.433 98.3355 336.7C98.0688 336.953 97.7488 337.08 97.3755 337.08C97.0021 337.08 96.6821 336.953 96.4155 336.7ZM103.394 343.44V349H101.514V339.38H103.354V340.76C103.994 339.653 104.981 339.1 106.314 339.1C107.421 339.1 108.267 339.453 108.854 340.16C109.454 340.867 109.754 341.78 109.754 342.9V349H107.874V343.22C107.874 341.607 107.127 340.8 105.634 340.8C104.927 340.8 104.374 341.053 103.974 341.56C103.587 342.053 103.394 342.68 103.394 343.44ZM117.145 346.42C117.145 345.593 117.411 344.933 117.945 344.44C118.478 343.933 119.185 343.62 120.065 343.5L122.665 343.12C123.158 343.053 123.405 342.813 123.405 342.4C123.405 341.893 123.231 341.48 122.885 341.16C122.538 340.84 122.018 340.68 121.325 340.68C120.685 340.68 120.178 340.86 119.805 341.22C119.431 341.567 119.211 342.033 119.145 342.62L117.345 342.2C117.438 341.28 117.858 340.533 118.605 339.96C119.351 339.373 120.245 339.08 121.285 339.08C122.645 339.08 123.651 339.413 124.305 340.08C124.958 340.733 125.285 341.573 125.285 342.6V347.42C125.285 347.993 125.325 348.52 125.405 349H123.565C123.498 348.6 123.465 348.167 123.465 347.7C123.198 348.127 122.805 348.5 122.285 348.82C121.778 349.14 121.138 349.3 120.365 349.3C119.418 349.3 118.645 349.02 118.045 348.46C117.445 347.887 117.145 347.207 117.145 346.42ZM120.625 347.72C121.465 347.72 122.138 347.493 122.645 347.04C123.151 346.587 123.405 345.867 123.405 344.88V344.44L120.465 344.88C120.038 344.947 119.698 345.1 119.445 345.34C119.191 345.58 119.065 345.907 119.065 346.32C119.065 346.693 119.205 347.02 119.485 347.3C119.778 347.58 120.158 347.72 120.625 347.72ZM130.093 343.44V349H128.213V339.38H130.053V340.76C130.693 339.653 131.68 339.1 133.013 339.1C134.12 339.1 134.967 339.453 135.553 340.16C136.153 340.867 136.453 341.78 136.453 342.9V349H134.573V343.22C134.573 341.607 133.827 340.8 132.333 340.8C131.627 340.8 131.073 341.053 130.673 341.56C130.287 342.053 130.093 342.68 130.093 343.44ZM141.844 353.02H139.784L142.184 347.94L138.044 339.38H140.204L143.204 346.02L146.084 339.38H148.104L141.844 353.02ZM156.773 352.8H154.913V339.38H156.733V340.88C157.013 340.373 157.433 339.96 157.993 339.64C158.553 339.32 159.206 339.16 159.953 339.16C161.339 339.16 162.419 339.633 163.193 340.58C163.979 341.527 164.373 342.727 164.373 344.18C164.373 345.647 163.966 346.86 163.153 347.82C162.353 348.78 161.266 349.26 159.893 349.26C159.186 349.26 158.559 349.113 158.013 348.82C157.466 348.527 157.053 348.153 156.773 347.7V352.8ZM162.453 344.18C162.453 343.207 162.193 342.407 161.673 341.78C161.166 341.14 160.479 340.82 159.613 340.82C158.759 340.82 158.066 341.14 157.533 341.78C157.013 342.407 156.753 343.207 156.753 344.18C156.753 345.18 157.013 346 157.533 346.64C158.066 347.267 158.759 347.58 159.613 347.58C160.466 347.58 161.153 347.267 161.673 346.64C162.193 346 162.453 345.18 162.453 344.18ZM172.108 339.28V341.28C171.828 341.24 171.555 341.22 171.288 341.22C169.528 341.22 168.648 342.207 168.648 344.18V349H166.768V339.38H168.608V341.06C169.195 339.833 170.155 339.22 171.488 339.22C171.701 339.22 171.908 339.24 172.108 339.28ZM175.994 346.72C176.581 347.32 177.294 347.62 178.134 347.62C178.974 347.62 179.681 347.32 180.254 346.72C180.841 346.107 181.134 345.26 181.134 344.18C181.134 343.113 180.841 342.28 180.254 341.68C179.681 341.067 178.974 340.76 178.134 340.76C177.294 340.76 176.581 341.067 175.994 341.68C175.421 342.28 175.134 343.113 175.134 344.18C175.134 345.26 175.421 346.107 175.994 346.72ZM174.594 340.54C175.527 339.567 176.707 339.08 178.134 339.08C179.561 339.08 180.734 339.567 181.654 340.54C182.587 341.5 183.054 342.713 183.054 344.18C183.054 345.66 182.594 346.887 181.674 347.86C180.754 348.82 179.574 349.3 178.134 349.3C176.694 349.3 175.514 348.82 174.594 347.86C173.674 346.887 173.214 345.66 173.214 344.18C173.214 342.713 173.674 341.5 174.594 340.54ZM189.499 340.82C188.686 340.82 187.993 341.113 187.419 341.7C186.859 342.287 186.579 343.113 186.579 344.18C186.579 345.233 186.859 346.06 187.419 346.66C187.993 347.26 188.693 347.56 189.519 347.56C190.319 347.56 190.926 347.36 191.339 346.96C191.766 346.56 192.053 346.1 192.199 345.58L193.859 346.3C193.593 347.1 193.086 347.8 192.339 348.4C191.606 349 190.666 349.3 189.519 349.3C188.119 349.3 186.959 348.813 186.039 347.84C185.119 346.867 184.659 345.647 184.659 344.18C184.659 342.687 185.119 341.467 186.039 340.52C186.959 339.56 188.113 339.08 189.499 339.08C190.673 339.08 191.619 339.38 192.339 339.98C193.073 340.58 193.553 341.3 193.779 342.14L192.079 342.86C191.933 342.3 191.653 341.82 191.239 341.42C190.826 341.02 190.246 340.82 189.499 340.82ZM197.187 343.2H202.447C202.421 342.48 202.181 341.893 201.727 341.44C201.274 340.973 200.634 340.74 199.807 340.74C199.061 340.74 198.447 340.987 197.967 341.48C197.487 341.96 197.227 342.533 197.187 343.2ZM202.727 345.7L204.347 346.26C204.067 347.153 203.547 347.887 202.787 348.46C202.027 349.02 201.107 349.3 200.027 349.3C198.681 349.3 197.534 348.84 196.587 347.92C195.654 346.987 195.187 345.733 195.187 344.16C195.187 342.693 195.641 341.48 196.547 340.52C197.454 339.56 198.534 339.08 199.787 339.08C201.241 339.08 202.374 339.54 203.187 340.46C204.001 341.367 204.407 342.587 204.407 344.12C204.407 344.36 204.394 344.56 204.367 344.72H197.127C197.141 345.573 197.421 346.273 197.967 346.82C198.527 347.367 199.214 347.64 200.027 347.64C201.401 347.64 202.301 346.993 202.727 345.7ZM205.907 346.5L207.607 345.9C207.674 346.42 207.9 346.853 208.287 347.2C208.674 347.533 209.194 347.7 209.847 347.7C210.354 347.7 210.754 347.58 211.047 347.34C211.34 347.087 211.487 346.78 211.487 346.42C211.487 345.78 211.074 345.367 210.247 345.18L208.607 344.82C207.86 344.66 207.274 344.34 206.847 343.86C206.42 343.38 206.207 342.8 206.207 342.12C206.207 341.293 206.54 340.58 207.207 339.98C207.887 339.38 208.694 339.08 209.627 339.08C210.24 339.08 210.787 339.173 211.267 339.36C211.747 339.533 212.12 339.767 212.387 340.06C212.654 340.353 212.854 340.627 212.987 340.88C213.12 341.133 213.22 341.393 213.287 341.66L211.627 342.28C211.6 342.12 211.554 341.967 211.487 341.82C211.42 341.66 211.314 341.487 211.167 341.3C211.034 341.113 210.834 340.967 210.567 340.86C210.3 340.74 209.987 340.68 209.627 340.68C209.16 340.68 208.774 340.807 208.467 341.06C208.174 341.313 208.027 341.613 208.027 341.96C208.027 342.573 208.394 342.96 209.127 343.12L210.687 343.46C211.54 343.647 212.194 343.993 212.647 344.5C213.114 344.993 213.347 345.6 213.347 346.32C213.347 347.08 213.034 347.767 212.407 348.38C211.794 348.993 210.934 349.3 209.827 349.3C208.64 349.3 207.714 349.007 207.047 348.42C206.38 347.82 206 347.18 205.907 346.5ZM214.95 346.5L216.65 345.9C216.717 346.42 216.943 346.853 217.33 347.2C217.717 347.533 218.237 347.7 218.89 347.7C219.397 347.7 219.797 347.58 220.09 347.34C220.383 347.087 220.53 346.78 220.53 346.42C220.53 345.78 220.117 345.367 219.29 345.18L217.65 344.82C216.903 344.66 216.317 344.34 215.89 343.86C215.463 343.38 215.25 342.8 215.25 342.12C215.25 341.293 215.583 340.58 216.25 339.98C216.93 339.38 217.737 339.08 218.67 339.08C219.283 339.08 219.83 339.173 220.31 339.36C220.79 339.533 221.163 339.767 221.43 340.06C221.697 340.353 221.897 340.627 222.03 340.88C222.163 341.133 222.263 341.393 222.33 341.66L220.67 342.28C220.643 342.12 220.597 341.967 220.53 341.82C220.463 341.66 220.357 341.487 220.21 341.3C220.077 341.113 219.877 340.967 219.61 340.86C219.343 340.74 219.03 340.68 218.67 340.68C218.203 340.68 217.817 340.807 217.51 341.06C217.217 341.313 217.07 341.613 217.07 341.96C217.07 342.573 217.437 342.96 218.17 343.12L219.73 343.46C220.583 343.647 221.237 343.993 221.69 344.5C222.157 344.993 222.39 345.6 222.39 346.32C222.39 347.08 222.077 347.767 221.45 348.38C220.837 348.993 219.977 349.3 218.87 349.3C217.683 349.3 216.757 349.007 216.09 348.42C215.423 347.82 215.043 347.18 214.95 346.5ZM226.753 349H224.893V339.38H226.753V349ZM224.853 336.7C224.6 336.433 224.473 336.113 224.473 335.74C224.473 335.367 224.6 335.047 224.853 334.78C225.12 334.513 225.44 334.38 225.813 334.38C226.186 334.38 226.506 334.513 226.773 334.78C227.04 335.033 227.173 335.353 227.173 335.74C227.173 336.113 227.04 336.433 226.773 336.7C226.506 336.953 226.186 337.08 225.813 337.08C225.44 337.08 225.12 336.953 224.853 336.7ZM231.832 343.44V349H229.952V339.38H231.792V340.76C232.432 339.653 233.418 339.1 234.752 339.1C235.858 339.1 236.705 339.453 237.292 340.16C237.892 340.867 238.192 341.78 238.192 342.9V349H236.312V343.22C236.312 341.607 235.565 340.8 234.072 340.8C233.365 340.8 232.812 341.053 232.412 341.56C232.025 342.053 231.832 342.68 231.832 343.44ZM240.482 349.52L242.302 349.1C242.369 349.78 242.642 350.34 243.122 350.78C243.602 351.233 244.202 351.46 244.922 351.46C246.882 351.46 247.862 350.42 247.862 348.34V346.96C247.622 347.427 247.242 347.807 246.722 348.1C246.215 348.393 245.615 348.54 244.922 348.54C243.642 348.54 242.582 348.107 241.742 347.24C240.915 346.36 240.502 345.24 240.502 343.88C240.502 342.56 240.915 341.453 241.742 340.56C242.569 339.653 243.629 339.2 244.922 339.2C246.389 339.2 247.375 339.707 247.882 340.72V339.38H249.742V348.28C249.742 348.92 249.655 349.513 249.482 350.06C249.322 350.62 249.062 351.133 248.702 351.6C248.342 352.067 247.835 352.433 247.182 352.7C246.542 352.967 245.789 353.1 244.922 353.1C243.735 353.1 242.729 352.76 241.902 352.08C241.075 351.413 240.602 350.56 240.482 349.52ZM245.202 346.96C246.015 346.96 246.675 346.68 247.182 346.12C247.689 345.547 247.942 344.8 247.942 343.88C247.942 342.96 247.689 342.22 247.182 341.66C246.675 341.087 246.015 340.8 245.202 340.8C244.375 340.8 243.702 341.08 243.182 341.64C242.675 342.2 242.422 342.947 242.422 343.88C242.422 344.827 242.669 345.58 243.162 346.14C243.669 346.687 244.349 346.96 245.202 346.96ZM44.7705 377.8H42.9105V364.38H44.7305V365.88C45.0105 365.373 45.4305 364.96 45.9905 364.64C46.5505 364.32 47.2039 364.16 47.9505 364.16C49.3372 364.16 50.4172 364.633 51.1905 365.58C51.9772 366.527 52.3705 367.727 52.3705 369.18C52.3705 370.647 51.9639 371.86 51.1505 372.82C50.3505 373.78 49.2639 374.26 47.8905 374.26C47.1839 374.26 46.5572 374.113 46.0105 373.82C45.4639 373.527 45.0505 373.153 44.7705 372.7V377.8ZM50.4505 369.18C50.4505 368.207 50.1905 367.407 49.6705 366.78C49.1639 366.14 48.4772 365.82 47.6105 365.82C46.7572 365.82 46.0639 366.14 45.5305 366.78C45.0105 367.407 44.7505 368.207 44.7505 369.18C44.7505 370.18 45.0105 371 45.5305 371.64C46.0639 372.267 46.7572 372.58 47.6105 372.58C48.4639 372.58 49.1505 372.267 49.6705 371.64C50.1905 371 50.4505 370.18 50.4505 369.18ZM56.646 374H54.766V359.52H56.646V374ZM59.2441 371.42C59.2441 370.593 59.5108 369.933 60.0441 369.44C60.5775 368.933 61.2841 368.62 62.1641 368.5L64.7641 368.12C65.2575 368.053 65.5041 367.813 65.5041 367.4C65.5041 366.893 65.3308 366.48 64.9841 366.16C64.6375 365.84 64.1175 365.68 63.4241 365.68C62.7841 365.68 62.2775 365.86 61.9041 366.22C61.5308 366.567 61.3108 367.033 61.2441 367.62L59.4441 367.2C59.5375 366.28 59.9575 365.533 60.7041 364.96C61.4508 364.373 62.3441 364.08 63.3841 364.08C64.7441 364.08 65.7508 364.413 66.4041 365.08C67.0575 365.733 67.3841 366.573 67.3841 367.6V372.42C67.3841 372.993 67.4241 373.52 67.5041 374H65.6641C65.5975 373.6 65.5641 373.167 65.5641 372.7C65.2975 373.127 64.9041 373.5 64.3841 373.82C63.8775 374.14 63.2375 374.3 62.4641 374.3C61.5175 374.3 60.7441 374.02 60.1441 373.46C59.5441 372.887 59.2441 372.207 59.2441 371.42ZM62.7241 372.72C63.5641 372.72 64.2375 372.493 64.7441 372.04C65.2508 371.587 65.5041 370.867 65.5041 369.88V369.44L62.5641 369.88C62.1375 369.947 61.7975 370.1 61.5441 370.34C61.2908 370.58 61.1641 370.907 61.1641 371.32C61.1641 371.693 61.3041 372.02 61.5841 372.3C61.8775 372.58 62.2575 372.72 62.7241 372.72ZM72.1929 368.44V374H70.3129V364.38H72.1529V365.76C72.7929 364.653 73.7796 364.1 75.1129 364.1C76.2196 364.1 77.0662 364.453 77.6529 365.16C78.2529 365.867 78.5529 366.78 78.5529 367.9V374H76.6729V368.22C76.6729 366.607 75.9262 365.8 74.4329 365.8C73.7262 365.8 73.1729 366.053 72.7729 366.56C72.3862 367.053 72.1929 367.68 72.1929 368.44ZM84.0634 361.34V364.38H86.1434V366.08H84.0634V371.08C84.0634 371.533 84.1634 371.867 84.3634 372.08C84.5767 372.293 84.9234 372.4 85.4034 372.4C85.6834 372.4 85.93 372.373 86.1434 372.32V373.92C85.8234 374.04 85.3967 374.1 84.8634 374.1C84.0367 374.1 83.3834 373.86 82.9034 373.38C82.4234 372.9 82.1834 372.227 82.1834 371.36V366.08H80.3434V364.38H80.8634C81.3567 364.38 81.7234 364.247 81.9634 363.98C82.2167 363.7 82.3434 363.34 82.3434 362.9V361.34H84.0634ZM95.6327 371.72C96.2194 372.32 96.9327 372.62 97.7727 372.62C98.6127 372.62 99.3194 372.32 99.8927 371.72C100.479 371.107 100.773 370.26 100.773 369.18C100.773 368.113 100.479 367.28 99.8927 366.68C99.3194 366.067 98.6127 365.76 97.7727 365.76C96.9327 365.76 96.2194 366.067 95.6327 366.68C95.0594 367.28 94.7727 368.113 94.7727 369.18C94.7727 370.26 95.0594 371.107 95.6327 371.72ZM94.2327 365.54C95.1661 364.567 96.3461 364.08 97.7727 364.08C99.1994 364.08 100.373 364.567 101.293 365.54C102.226 366.5 102.693 367.713 102.693 369.18C102.693 370.66 102.233 371.887 101.313 372.86C100.393 373.82 99.2127 374.3 97.7727 374.3C96.3327 374.3 95.1527 373.82 94.2327 372.86C93.3127 371.887 92.8527 370.66 92.8527 369.18C92.8527 367.713 93.3127 366.5 94.2327 365.54ZM109.938 366.08H107.618V374H105.678V366.08H103.898V364.38H105.678V362.76C105.678 361.733 105.978 360.927 106.578 360.34C107.178 359.753 107.931 359.46 108.838 359.46C109.411 359.46 109.785 359.527 109.958 359.66V361.34C109.758 361.26 109.485 361.22 109.138 361.22C108.725 361.22 108.365 361.347 108.058 361.6C107.765 361.84 107.618 362.26 107.618 362.86V364.38H109.938V366.08ZM119.354 378.02H117.294L119.694 372.94L115.554 364.38H117.714L120.714 371.02L123.594 364.38H125.614L119.354 378.02ZM129.012 371.72C129.598 372.32 130.312 372.62 131.152 372.62C131.992 372.62 132.698 372.32 133.272 371.72C133.858 371.107 134.152 370.26 134.152 369.18C134.152 368.113 133.858 367.28 133.272 366.68C132.698 366.067 131.992 365.76 131.152 365.76C130.312 365.76 129.598 366.067 129.012 366.68C128.438 367.28 128.152 368.113 128.152 369.18C128.152 370.26 128.438 371.107 129.012 371.72ZM127.612 365.54C128.545 364.567 129.725 364.08 131.152 364.08C132.578 364.08 133.752 364.567 134.672 365.54C135.605 366.5 136.072 367.713 136.072 369.18C136.072 370.66 135.612 371.887 134.692 372.86C133.772 373.82 132.592 374.3 131.152 374.3C129.712 374.3 128.532 373.82 127.612 372.86C126.692 371.887 126.232 370.66 126.232 369.18C126.232 367.713 126.692 366.5 127.612 365.54ZM144.719 372.84C144.466 373.32 144.079 373.687 143.559 373.94C143.039 374.18 142.479 374.3 141.879 374.3C140.786 374.3 139.913 373.94 139.259 373.22C138.606 372.487 138.279 371.56 138.279 370.44V364.38H140.159V370.16C140.159 370.88 140.333 371.473 140.679 371.94C141.039 372.407 141.593 372.64 142.339 372.64C143.086 372.64 143.653 372.42 144.039 371.98C144.426 371.527 144.619 370.927 144.619 370.18V364.38H146.499V372.22C146.499 372.847 146.533 373.44 146.599 374H144.799C144.746 373.707 144.719 373.32 144.719 372.84ZM155.047 364.28V366.28C154.767 366.24 154.494 366.22 154.227 366.22C152.467 366.22 151.587 367.207 151.587 369.18V374H149.707V364.38H151.547V366.06C152.134 364.833 153.094 364.22 154.427 364.22C154.641 364.22 154.847 364.24 155.047 364.28ZM166.091 365.82C165.278 365.82 164.585 366.113 164.011 366.7C163.451 367.287 163.171 368.113 163.171 369.18C163.171 370.233 163.451 371.06 164.011 371.66C164.585 372.26 165.285 372.56 166.111 372.56C166.911 372.56 167.518 372.36 167.931 371.96C168.358 371.56 168.645 371.1 168.791 370.58L170.451 371.3C170.185 372.1 169.678 372.8 168.931 373.4C168.198 374 167.258 374.3 166.111 374.3C164.711 374.3 163.551 373.813 162.631 372.84C161.711 371.867 161.251 370.647 161.251 369.18C161.251 367.687 161.711 366.467 162.631 365.52C163.551 364.56 164.705 364.08 166.091 364.08C167.265 364.08 168.211 364.38 168.931 364.98C169.665 365.58 170.145 366.3 170.371 367.14L168.671 367.86C168.525 367.3 168.245 366.82 167.831 366.42C167.418 366.02 166.838 365.82 166.091 365.82ZM174.537 368.34V374H172.657V359.52H174.537V365.5C175.177 364.567 176.15 364.1 177.457 364.1C178.563 364.1 179.41 364.453 179.997 365.16C180.597 365.867 180.897 366.78 180.897 367.9V374H179.017V368.22C179.017 366.607 178.27 365.8 176.777 365.8C176.083 365.8 175.543 366.04 175.157 366.52C174.77 366.987 174.563 367.593 174.537 368.34ZM185.867 371.72C186.454 372.32 187.167 372.62 188.007 372.62C188.847 372.62 189.554 372.32 190.127 371.72C190.714 371.107 191.007 370.26 191.007 369.18C191.007 368.113 190.714 367.28 190.127 366.68C189.554 366.067 188.847 365.76 188.007 365.76C187.167 365.76 186.454 366.067 185.867 366.68C185.294 367.28 185.007 368.113 185.007 369.18C185.007 370.26 185.294 371.107 185.867 371.72ZM184.467 365.54C185.4 364.567 186.58 364.08 188.007 364.08C189.434 364.08 190.607 364.567 191.527 365.54C192.46 366.5 192.927 367.713 192.927 369.18C192.927 370.66 192.467 371.887 191.547 372.86C190.627 373.82 189.447 374.3 188.007 374.3C186.567 374.3 185.387 373.82 184.467 372.86C183.547 371.887 183.087 370.66 183.087 369.18C183.087 367.713 183.547 366.5 184.467 365.54ZM197.192 374H195.332V364.38H197.192V374ZM195.292 361.7C195.039 361.433 194.912 361.113 194.912 360.74C194.912 360.367 195.039 360.047 195.292 359.78C195.559 359.513 195.879 359.38 196.252 359.38C196.626 359.38 196.946 359.513 197.212 359.78C197.479 360.033 197.612 360.353 197.612 360.74C197.612 361.113 197.479 361.433 197.212 361.7C196.946 361.953 196.626 362.08 196.252 362.08C195.879 362.08 195.559 361.953 195.292 361.7ZM204.431 365.82C203.618 365.82 202.924 366.113 202.351 366.7C201.791 367.287 201.511 368.113 201.511 369.18C201.511 370.233 201.791 371.06 202.351 371.66C202.924 372.26 203.624 372.56 204.451 372.56C205.251 372.56 205.858 372.36 206.271 371.96C206.698 371.56 206.984 371.1 207.131 370.58L208.791 371.3C208.524 372.1 208.018 372.8 207.271 373.4C206.538 374 205.598 374.3 204.451 374.3C203.051 374.3 201.891 373.813 200.971 372.84C200.051 371.867 199.591 370.647 199.591 369.18C199.591 367.687 200.051 366.467 200.971 365.52C201.891 364.56 203.044 364.08 204.431 364.08C205.604 364.08 206.551 364.38 207.271 364.98C208.004 365.58 208.484 366.3 208.711 367.14L207.011 367.86C206.864 367.3 206.584 366.82 206.171 366.42C205.758 366.02 205.178 365.82 204.431 365.82ZM212.119 368.2H217.379C217.352 367.48 217.112 366.893 216.659 366.44C216.205 365.973 215.565 365.74 214.739 365.74C213.992 365.74 213.379 365.987 212.899 366.48C212.419 366.96 212.159 367.533 212.119 368.2ZM217.659 370.7L219.279 371.26C218.999 372.153 218.479 372.887 217.719 373.46C216.959 374.02 216.039 374.3 214.959 374.3C213.612 374.3 212.465 373.84 211.519 372.92C210.585 371.987 210.119 370.733 210.119 369.16C210.119 367.693 210.572 366.48 211.479 365.52C212.385 364.56 213.465 364.08 214.719 364.08C216.172 364.08 217.305 364.54 218.119 365.46C218.932 366.367 219.339 367.587 219.339 369.12C219.339 369.36 219.325 369.56 219.299 369.72H212.059C212.072 370.573 212.352 371.273 212.899 371.82C213.459 372.367 214.145 372.64 214.959 372.64C216.332 372.64 217.232 371.993 217.659 370.7ZM226.139 371.42C226.139 370.593 226.405 369.933 226.939 369.44C227.472 368.933 228.179 368.62 229.059 368.5L231.659 368.12C232.152 368.053 232.399 367.813 232.399 367.4C232.399 366.893 232.225 366.48 231.879 366.16C231.532 365.84 231.012 365.68 230.319 365.68C229.679 365.68 229.172 365.86 228.799 366.22C228.425 366.567 228.205 367.033 228.139 367.62L226.339 367.2C226.432 366.28 226.852 365.533 227.599 364.96C228.345 364.373 229.239 364.08 230.279 364.08C231.639 364.08 232.645 364.413 233.299 365.08C233.952 365.733 234.279 366.573 234.279 367.6V372.42C234.279 372.993 234.319 373.52 234.399 374H232.559C232.492 373.6 232.459 373.167 232.459 372.7C232.192 373.127 231.799 373.5 231.279 373.82C230.772 374.14 230.132 374.3 229.359 374.3C228.412 374.3 227.639 374.02 227.039 373.46C226.439 372.887 226.139 372.207 226.139 371.42ZM229.619 372.72C230.459 372.72 231.132 372.493 231.639 372.04C232.145 371.587 232.399 370.867 232.399 369.88V369.44L229.459 369.88C229.032 369.947 228.692 370.1 228.439 370.34C228.185 370.58 228.059 370.907 228.059 371.32C228.059 371.693 228.199 372.02 228.479 372.3C228.772 372.58 229.152 372.72 229.619 372.72ZM245.447 364.38L241.607 374H239.707L235.807 364.38H237.927L240.667 371.8L243.427 364.38H245.447ZM246.549 371.42C246.549 370.593 246.815 369.933 247.349 369.44C247.882 368.933 248.589 368.62 249.469 368.5L252.069 368.12C252.562 368.053 252.809 367.813 252.809 367.4C252.809 366.893 252.635 366.48 252.289 366.16C251.942 365.84 251.422 365.68 250.729 365.68C250.089 365.68 249.582 365.86 249.209 366.22C248.835 366.567 248.615 367.033 248.549 367.62L246.749 367.2C246.842 366.28 247.262 365.533 248.009 364.96C248.755 364.373 249.649 364.08 250.689 364.08C252.049 364.08 253.055 364.413 253.709 365.08C254.362 365.733 254.689 366.573 254.689 367.6V372.42C254.689 372.993 254.729 373.52 254.809 374H252.969C252.902 373.6 252.869 373.167 252.869 372.7C252.602 373.127 252.209 373.5 251.689 373.82C251.182 374.14 250.542 374.3 249.769 374.3C248.822 374.3 248.049 374.02 247.449 373.46C246.849 372.887 246.549 372.207 246.549 371.42ZM250.029 372.72C250.869 372.72 251.542 372.493 252.049 372.04C252.555 371.587 252.809 370.867 252.809 369.88V369.44L249.869 369.88C249.442 369.947 249.102 370.1 248.849 370.34C248.595 370.58 248.469 370.907 248.469 371.32C248.469 371.693 248.609 372.02 248.889 372.3C249.182 372.58 249.562 372.72 250.029 372.72ZM259.478 374H257.618V364.38H259.478V374ZM257.578 361.7C257.324 361.433 257.198 361.113 257.198 360.74C257.198 360.367 257.324 360.047 257.578 359.78C257.844 359.513 258.164 359.38 258.538 359.38C258.911 359.38 259.231 359.513 259.498 359.78C259.764 360.033 259.898 360.353 259.898 360.74C259.898 361.113 259.764 361.433 259.498 361.7C259.231 361.953 258.911 362.08 258.538 362.08C258.164 362.08 257.844 361.953 257.578 361.7ZM264.556 374H262.676V359.52H264.556V374ZM267.154 371.42C267.154 370.593 267.421 369.933 267.954 369.44C268.488 368.933 269.194 368.62 270.074 368.5L272.674 368.12C273.168 368.053 273.414 367.813 273.414 367.4C273.414 366.893 273.241 366.48 272.894 366.16C272.548 365.84 272.028 365.68 271.334 365.68C270.694 365.68 270.188 365.86 269.814 366.22C269.441 366.567 269.221 367.033 269.154 367.62L267.354 367.2C267.448 366.28 267.868 365.533 268.614 364.96C269.361 364.373 270.254 364.08 271.294 364.08C272.654 364.08 273.661 364.413 274.314 365.08C274.968 365.733 275.294 366.573 275.294 367.6V372.42C275.294 372.993 275.334 373.52 275.414 374H273.574C273.508 373.6 273.474 373.167 273.474 372.7C273.208 373.127 272.814 373.5 272.294 373.82C271.788 374.14 271.148 374.3 270.374 374.3C269.428 374.3 268.654 374.02 268.054 373.46C267.454 372.887 267.154 372.207 267.154 371.42ZM270.634 372.72C271.474 372.72 272.148 372.493 272.654 372.04C273.161 371.587 273.414 370.867 273.414 369.88V369.44L270.474 369.88C270.048 369.947 269.708 370.1 269.454 370.34C269.201 370.58 269.074 370.907 269.074 371.32C269.074 371.693 269.214 372.02 269.494 372.3C269.788 372.58 270.168 372.72 270.634 372.72ZM280.083 374H278.223V359.52H280.083V365.74C280.336 365.273 280.736 364.887 281.283 364.58C281.843 364.26 282.503 364.1 283.263 364.1C284.663 364.1 285.75 364.573 286.523 365.52C287.296 366.467 287.683 367.673 287.683 369.14C287.683 370.62 287.283 371.847 286.483 372.82C285.683 373.78 284.59 374.26 283.203 374.26C281.763 374.26 280.723 373.707 280.083 372.6V374ZM284.983 371.64C285.503 371.013 285.763 370.18 285.763 369.14C285.763 368.1 285.503 367.28 284.983 366.68C284.476 366.067 283.79 365.76 282.923 365.76C282.083 365.76 281.396 366.067 280.863 366.68C280.33 367.293 280.063 368.113 280.063 369.14C280.063 370.167 280.33 371 280.863 371.64C281.396 372.267 282.083 372.58 282.923 372.58C283.776 372.58 284.463 372.267 284.983 371.64ZM291.959 374H290.079V359.52H291.959V374ZM296.377 368.2H301.637C301.61 367.48 301.37 366.893 300.917 366.44C300.463 365.973 299.823 365.74 298.997 365.74C298.25 365.74 297.637 365.987 297.157 366.48C296.677 366.96 296.417 367.533 296.377 368.2ZM301.917 370.7L303.537 371.26C303.257 372.153 302.737 372.887 301.977 373.46C301.217 374.02 300.297 374.3 299.217 374.3C297.87 374.3 296.723 373.84 295.777 372.92C294.843 371.987 294.377 370.733 294.377 369.16C294.377 367.693 294.83 366.48 295.737 365.52C296.643 364.56 297.723 364.08 298.977 364.08C300.43 364.08 301.563 364.54 302.377 365.46C303.19 366.367 303.597 367.587 303.597 369.12C303.597 369.36 303.583 369.56 303.557 369.72H296.317C296.33 370.573 296.61 371.273 297.157 371.82C297.717 372.367 298.403 372.64 299.217 372.64C300.59 372.64 301.49 371.993 301.917 370.7ZM305.904 373.7C305.637 373.433 305.504 373.107 305.504 372.72C305.504 372.333 305.637 372.007 305.904 371.74C306.17 371.46 306.497 371.32 306.884 371.32C307.27 371.32 307.597 371.46 307.864 371.74C308.144 372.007 308.284 372.333 308.284 372.72C308.284 373.107 308.144 373.433 307.864 373.7C307.597 373.967 307.27 374.1 306.884 374.1C306.497 374.1 306.17 373.967 305.904 373.7Z" fill="white"/>
</svg>
