<svg width="376" height="316" viewBox="0 0 376 316" fill="none" xmlns="http://www.w3.org/2000/svg">
<path fill-rule="evenodd" clip-rule="evenodd" d="M272.11 35.2997C290.302 36.2313 304.762 45.426 319.223 55.7505C366.646 89.6551 382.507 142.26 350.01 193.954C299.477 274.118 181.772 326.584 90.5008 302.37C70.2875 297.034 42.9216 292.331 22.8637 266.271C4.20518 242.041 4.98262 213.236 13.5344 186.568C22.2418 159.226 39.0344 134.061 52.4064 117.884C110.87 47.308 227.952 -16.8364 333.839 16.98C336.016 17.6315 338.193 16.511 338.815 14.4774C339.437 12.4438 338.348 10.2631 336.326 9.61156C227.329 -25.1907 106.515 40.3311 46.3417 112.964C29.7046 133.135 7.9375 166.806 1.71799 201.644C-2.48018 225.455 0.47348 249.795 16.6442 270.968C37.946 298.727 67.0225 304.164 88.4798 309.847C182.705 334.856 304.451 280.856 356.54 198.063C391.524 142.502 374.732 85.9067 323.732 49.4639C308.184 38.2619 292.323 28.5812 272.576 27.5722C270.399 27.4623 268.534 29.1044 268.534 31.237C268.379 33.3697 270.089 35.1898 272.11 35.2997Z" fill="white"/>
<path d="M108.46 162.812C107.375 163.824 105.982 164.33 104.28 164.33C102.579 164.33 101.186 163.824 100.1 162.812C99.015 161.8 98.4723 160.385 98.4723 158.566V148.402H101.09V158.412C101.09 159.497 101.369 160.341 101.926 160.942C102.498 161.529 103.283 161.822 104.28 161.822C105.292 161.822 106.077 161.529 106.634 160.942C107.192 160.355 107.47 159.512 107.47 158.412V148.402H110.11V158.566C110.11 160.385 109.56 161.8 108.46 162.812ZM115.868 168.18H113.338V153.286H115.802V154.738C116.081 154.254 116.521 153.851 117.122 153.528C117.724 153.205 118.42 153.044 119.212 153.044C120.752 153.044 121.962 153.572 122.842 154.628C123.722 155.669 124.162 157.004 124.162 158.632C124.162 160.26 123.7 161.609 122.776 162.68C121.852 163.736 120.635 164.264 119.124 164.264C118.391 164.264 117.738 164.125 117.166 163.846C116.594 163.567 116.162 163.215 115.868 162.79V168.18ZM121.61 158.632C121.61 157.635 121.346 156.835 120.818 156.234C120.29 155.618 119.594 155.31 118.728 155.31C117.878 155.31 117.181 155.618 116.638 156.234C116.11 156.835 115.846 157.635 115.846 158.632C115.846 159.644 116.11 160.458 116.638 161.074C117.181 161.69 117.878 161.998 118.728 161.998C119.579 161.998 120.268 161.69 120.796 161.074C121.339 160.458 121.61 159.644 121.61 158.632ZM135.307 150.008V153.286H137.529V155.552H135.307V160.524C135.307 160.993 135.417 161.338 135.637 161.558C135.857 161.763 136.202 161.866 136.671 161.866C136.964 161.866 137.258 161.837 137.551 161.778V163.89C137.17 164.051 136.649 164.132 135.989 164.132C134.992 164.132 134.207 163.853 133.635 163.296C133.063 162.724 132.777 161.939 132.777 160.942V155.552H130.797V153.286H131.347C131.89 153.286 132.3 153.132 132.579 152.824C132.858 152.516 132.997 152.113 132.997 151.614V150.008H135.307ZM142.618 161.14C143.204 161.741 143.916 162.042 144.752 162.042C145.588 162.042 146.292 161.741 146.864 161.14C147.45 160.539 147.744 159.703 147.744 158.632C147.744 157.576 147.45 156.755 146.864 156.168C146.292 155.567 145.588 155.266 144.752 155.266C143.916 155.266 143.204 155.567 142.618 156.168C142.046 156.755 141.76 157.576 141.76 158.632C141.76 159.688 142.046 160.524 142.618 161.14ZM144.752 152.956C146.365 152.956 147.692 153.491 148.734 154.562C149.79 155.633 150.318 156.989 150.318 158.632C150.318 160.275 149.79 161.639 148.734 162.724C147.692 163.795 146.365 164.33 144.752 164.33C143.153 164.33 141.826 163.795 140.77 162.724C139.728 161.639 139.208 160.275 139.208 158.632C139.208 156.989 139.728 155.633 140.77 154.562C141.826 153.491 143.153 152.956 144.752 152.956ZM167.103 149.888L164.463 145.616L173.055 137.936H158.895V132.896H180.495V137.696L172.047 145.088C174.543 145.152 176.719 146.032 178.575 147.728C180.431 149.424 181.359 151.696 181.359 154.544C181.359 157.36 180.303 159.76 178.191 161.744C176.079 163.728 173.247 164.72 169.695 164.72C166.239 164.72 163.439 163.776 161.295 161.888C159.183 159.968 158.031 157.632 157.839 154.88L163.455 153.728C163.519 155.52 164.127 156.976 165.279 158.096C166.463 159.216 167.919 159.776 169.647 159.776C171.471 159.776 172.911 159.264 173.967 158.24C175.023 157.216 175.551 155.968 175.551 154.496C175.551 152.832 174.991 151.568 173.871 150.704C172.783 149.808 171.503 149.36 170.031 149.36C168.783 149.36 167.807 149.536 167.103 149.888ZM193.54 149.888L190.9 145.616L199.492 137.936H185.332V132.896H206.932V137.696L198.484 145.088C200.98 145.152 203.156 146.032 205.012 147.728C206.868 149.424 207.796 151.696 207.796 154.544C207.796 157.36 206.74 159.76 204.628 161.744C202.516 163.728 199.684 164.72 196.132 164.72C192.676 164.72 189.876 163.776 187.732 161.888C185.62 159.968 184.468 157.632 184.276 154.88L189.892 153.728C189.956 155.52 190.564 156.976 191.716 158.096C192.9 159.216 194.356 159.776 196.084 159.776C197.908 159.776 199.348 159.264 200.404 158.24C201.46 157.216 201.988 155.968 201.988 154.496C201.988 152.832 201.428 151.568 200.308 150.704C199.22 149.808 197.94 149.36 196.468 149.36C195.22 149.36 194.244 149.536 193.54 149.888ZM216.914 137.696C216.274 138.336 215.954 139.168 215.954 140.192C215.954 141.216 216.274 142.064 216.914 142.736C217.586 143.408 218.402 143.744 219.362 143.744C220.322 143.744 221.122 143.408 221.762 142.736C222.402 142.064 222.722 141.216 222.722 140.192C222.722 139.168 222.402 138.336 221.762 137.696C221.122 137.024 220.322 136.688 219.362 136.688C218.402 136.688 217.586 137.024 216.914 137.696ZM213.794 145.664C212.258 144.16 211.49 142.336 211.49 140.192C211.49 138.048 212.258 136.224 213.794 134.72C215.362 133.216 217.218 132.464 219.362 132.464C221.506 132.464 223.346 133.216 224.882 134.72C226.45 136.224 227.234 138.048 227.234 140.192C227.234 142.336 226.45 144.16 224.882 145.664C223.346 147.136 221.49 147.872 219.314 147.872C217.17 147.872 215.33 147.136 213.794 145.664ZM236.978 154.256C236.338 154.896 236.018 155.728 236.018 156.752C236.018 157.776 236.338 158.624 236.978 159.296C237.65 159.968 238.466 160.304 239.426 160.304C240.386 160.304 241.186 159.968 241.826 159.296C242.466 158.624 242.786 157.776 242.786 156.752C242.786 155.728 242.466 154.896 241.826 154.256C241.186 153.584 240.386 153.248 239.426 153.248C238.466 153.248 237.65 153.584 236.978 154.256ZM233.858 162.224C232.322 160.72 231.554 158.896 231.554 156.752C231.554 154.608 232.322 152.784 233.858 151.28C235.426 149.776 237.282 149.024 239.426 149.024C241.57 149.024 243.41 149.776 244.946 151.28C246.514 152.784 247.298 154.608 247.298 156.752C247.298 158.896 246.514 160.72 244.946 162.224C243.41 163.696 241.554 164.432 239.378 164.432C237.234 164.432 235.394 163.696 233.858 162.224ZM220.85 164H215.81L237.986 132.896H242.978L220.85 164ZM258.947 164H256.417V153.286H258.947V164ZM256.505 150.69C256.182 150.367 256.021 149.979 256.021 149.524C256.021 149.069 256.182 148.681 256.505 148.358C256.827 148.021 257.216 147.852 257.671 147.852C258.14 147.852 258.536 148.013 258.859 148.336C259.181 148.659 259.343 149.055 259.343 149.524C259.343 149.979 259.181 150.367 258.859 150.69C258.536 151.013 258.14 151.174 257.671 151.174C257.216 151.174 256.827 151.013 256.505 150.69ZM264.791 157.818V164H262.239V153.286H264.725V154.716C265.062 154.129 265.51 153.697 266.067 153.418C266.639 153.125 267.248 152.978 267.893 152.978C269.154 152.978 270.115 153.374 270.775 154.166C271.435 154.958 271.765 155.977 271.765 157.224V164H269.213V157.664C269.213 156.945 269.037 156.373 268.685 155.948C268.333 155.508 267.776 155.288 267.013 155.288C266.309 155.288 265.759 155.53 265.363 156.014C264.982 156.483 264.791 157.085 264.791 157.818ZM92.1243 204H89.5943V193.286H92.1243V204ZM89.6823 190.69C89.3597 190.367 89.1983 189.979 89.1983 189.524C89.1983 189.069 89.3597 188.681 89.6823 188.358C90.005 188.021 90.3937 187.852 90.8483 187.852C91.3177 187.852 91.7137 188.013 92.0363 188.336C92.359 188.659 92.5203 189.055 92.5203 189.524C92.5203 189.979 92.359 190.367 92.0363 190.69C91.7137 191.013 91.3177 191.174 90.8483 191.174C90.3937 191.174 90.005 191.013 89.6823 190.69ZM97.9686 197.818V204H95.4166V193.286H97.9026V194.716C98.2399 194.129 98.6873 193.697 99.2446 193.418C99.8166 193.125 100.425 192.978 101.071 192.978C102.332 192.978 103.293 193.374 103.953 194.166C104.613 194.958 104.943 195.977 104.943 197.224V204H102.391V197.664C102.391 196.945 102.215 196.373 101.863 195.948C101.511 195.508 100.953 195.288 100.191 195.288C99.4866 195.288 98.9366 195.53 98.5406 196.014C98.1593 196.483 97.9686 197.085 97.9686 197.818ZM111.283 190.008V193.286H113.505V195.552H111.283V200.524C111.283 200.993 111.393 201.338 111.613 201.558C111.833 201.763 112.178 201.866 112.647 201.866C112.941 201.866 113.234 201.837 113.527 201.778V203.89C113.146 204.051 112.625 204.132 111.965 204.132C110.968 204.132 110.183 203.853 109.611 203.296C109.039 202.724 108.753 201.939 108.753 200.942V195.552H106.773V193.286H107.323C107.866 193.286 108.277 193.132 108.555 192.824C108.834 192.516 108.973 192.113 108.973 191.614V190.008H111.283ZM117.802 197.466H123.06C123.031 196.791 122.789 196.227 122.334 195.772C121.894 195.317 121.256 195.09 120.42 195.09C119.657 195.09 119.041 195.332 118.572 195.816C118.103 196.285 117.846 196.835 117.802 197.466ZM123.346 200.26L125.502 200.942C125.194 201.925 124.615 202.739 123.764 203.384C122.928 204.015 121.894 204.33 120.662 204.33C119.137 204.33 117.839 203.809 116.768 202.768C115.712 201.727 115.184 200.333 115.184 198.588C115.184 196.945 115.697 195.596 116.724 194.54C117.765 193.484 118.99 192.956 120.398 192.956C122.041 192.956 123.324 193.462 124.248 194.474C125.172 195.471 125.634 196.821 125.634 198.522C125.634 198.977 125.612 199.248 125.568 199.336H117.736C117.765 200.143 118.059 200.81 118.616 201.338C119.188 201.866 119.87 202.13 120.662 202.13C122.041 202.13 122.935 201.507 123.346 200.26ZM134.343 193.22V195.816C134.05 195.772 133.771 195.75 133.507 195.75C131.586 195.75 130.625 196.799 130.625 198.896V204H128.073V193.286H130.559V195.002C130.808 194.43 131.212 193.983 131.769 193.66C132.326 193.323 132.957 193.154 133.661 193.154C133.896 193.154 134.123 193.176 134.343 193.22ZM138.148 197.466H143.406C143.376 196.791 143.134 196.227 142.68 195.772C142.24 195.317 141.602 195.09 140.766 195.09C140.003 195.09 139.387 195.332 138.918 195.816C138.448 196.285 138.192 196.835 138.148 197.466ZM143.692 200.26L145.848 200.942C145.54 201.925 144.96 202.739 144.11 203.384C143.274 204.015 142.24 204.33 141.008 204.33C139.482 204.33 138.184 203.809 137.114 202.768C136.058 201.727 135.53 200.333 135.53 198.588C135.53 196.945 136.043 195.596 137.07 194.54C138.111 193.484 139.336 192.956 140.744 192.956C142.386 192.956 143.67 193.462 144.594 194.474C145.518 195.471 145.98 196.821 145.98 198.522C145.98 198.977 145.958 199.248 145.914 199.336H138.082C138.111 200.143 138.404 200.81 138.962 201.338C139.534 201.866 140.216 202.13 141.008 202.13C142.386 202.13 143.281 201.507 143.692 200.26ZM147.473 201.096L149.695 200.48C149.739 200.993 149.951 201.426 150.333 201.778C150.714 202.13 151.227 202.306 151.873 202.306C152.371 202.306 152.76 202.189 153.039 201.954C153.332 201.719 153.479 201.426 153.479 201.074C153.479 200.458 153.061 200.062 152.225 199.886L150.641 199.534C149.717 199.329 149.005 198.947 148.507 198.39C148.008 197.833 147.759 197.173 147.759 196.41C147.759 195.471 148.14 194.665 148.903 193.99C149.665 193.301 150.597 192.956 151.697 192.956C152.401 192.956 153.024 193.059 153.567 193.264C154.109 193.469 154.527 193.741 154.821 194.078C155.129 194.401 155.363 194.716 155.525 195.024C155.686 195.332 155.789 195.64 155.833 195.948L153.677 196.564C153.618 196.153 153.427 195.787 153.105 195.464C152.797 195.127 152.327 194.958 151.697 194.958C151.257 194.958 150.89 195.083 150.597 195.332C150.303 195.567 150.157 195.853 150.157 196.19C150.157 196.791 150.516 197.165 151.235 197.312L152.863 197.642C153.86 197.862 154.623 198.258 155.151 198.83C155.679 199.402 155.943 200.091 155.943 200.898C155.943 201.793 155.583 202.592 154.865 203.296C154.161 203.985 153.171 204.33 151.895 204.33C151.161 204.33 150.501 204.22 149.915 204C149.343 203.78 148.888 203.501 148.551 203.164C148.228 202.812 147.971 202.467 147.781 202.13C147.605 201.778 147.502 201.433 147.473 201.096ZM161.707 190.008V193.286H163.929V195.552H161.707V200.524C161.707 200.993 161.817 201.338 162.037 201.558C162.257 201.763 162.602 201.866 163.071 201.866C163.365 201.866 163.658 201.837 163.951 201.778V203.89C163.57 204.051 163.049 204.132 162.389 204.132C161.392 204.132 160.607 203.853 160.035 203.296C159.463 202.724 159.177 201.939 159.177 200.942V195.552H157.197V193.286H157.747C158.29 193.286 158.701 193.132 158.979 192.824C159.258 192.516 159.397 192.113 159.397 191.614V190.008H161.707ZM174.495 208.18H171.965V193.286H174.429V194.738C174.708 194.254 175.148 193.851 175.749 193.528C176.351 193.205 177.047 193.044 177.839 193.044C179.379 193.044 180.589 193.572 181.469 194.628C182.349 195.669 182.789 197.004 182.789 198.632C182.789 200.26 182.327 201.609 181.403 202.68C180.479 203.736 179.262 204.264 177.751 204.264C177.018 204.264 176.365 204.125 175.793 203.846C175.221 203.567 174.789 203.215 174.495 202.79V208.18ZM180.237 198.632C180.237 197.635 179.973 196.835 179.445 196.234C178.917 195.618 178.221 195.31 177.355 195.31C176.505 195.31 175.808 195.618 175.265 196.234C174.737 196.835 174.473 197.635 174.473 198.632C174.473 199.644 174.737 200.458 175.265 201.074C175.808 201.69 176.505 201.998 177.355 201.998C178.206 201.998 178.895 201.69 179.423 201.074C179.966 200.458 180.237 199.644 180.237 198.632ZM187.025 197.466H192.283C192.253 196.791 192.011 196.227 191.557 195.772C191.117 195.317 190.479 195.09 189.643 195.09C188.88 195.09 188.264 195.332 187.795 195.816C187.325 196.285 187.069 196.835 187.025 197.466ZM192.569 200.26L194.725 200.942C194.417 201.925 193.837 202.739 192.987 203.384C192.151 204.015 191.117 204.33 189.885 204.33C188.359 204.33 187.061 203.809 185.991 202.768C184.935 201.727 184.407 200.333 184.407 198.588C184.407 196.945 184.92 195.596 185.947 194.54C186.988 193.484 188.213 192.956 189.621 192.956C191.263 192.956 192.547 193.462 193.471 194.474C194.395 195.471 194.857 196.821 194.857 198.522C194.857 198.977 194.835 199.248 194.791 199.336H186.959C186.988 200.143 187.281 200.81 187.839 201.338C188.411 201.866 189.093 202.13 189.885 202.13C191.263 202.13 192.158 201.507 192.569 200.26ZM203.566 193.22V195.816C203.272 195.772 202.994 195.75 202.73 195.75C200.808 195.75 199.848 196.799 199.848 198.896V204H197.296V193.286H199.782V195.002C200.031 194.43 200.434 193.983 200.992 193.66C201.549 193.323 202.18 193.154 202.884 193.154C203.118 193.154 203.346 193.176 203.566 193.22ZM222 204L220.526 200.084H213.926L212.474 204H209.68L215.752 188.402H218.81L224.882 204H222ZM217.226 191.262L214.85 197.642H219.602L217.226 191.262ZM229.238 197.818V204H226.686V193.286H229.172V194.716C229.509 194.129 229.957 193.697 230.514 193.418C231.086 193.125 231.695 192.978 232.34 192.978C233.601 192.978 234.562 193.374 235.222 194.166C235.882 194.958 236.212 195.977 236.212 197.224V204H233.66V197.664C233.66 196.945 233.484 196.373 233.132 195.948C232.78 195.508 232.223 195.288 231.46 195.288C230.756 195.288 230.206 195.53 229.81 196.014C229.429 196.483 229.238 197.085 229.238 197.818ZM241.871 197.818V204H239.319V193.286H241.805V194.716C242.142 194.129 242.59 193.697 243.147 193.418C243.719 193.125 244.328 192.978 244.973 192.978C246.234 192.978 247.195 193.374 247.855 194.166C248.515 194.958 248.845 195.977 248.845 197.224V204H246.293V197.664C246.293 196.945 246.117 196.373 245.765 195.948C245.413 195.508 244.856 195.288 244.093 195.288C243.389 195.288 242.839 195.53 242.443 196.014C242.062 196.483 241.871 197.085 241.871 197.818ZM258.775 202.812C258.526 203.281 258.115 203.648 257.543 203.912C256.986 204.176 256.385 204.308 255.739 204.308C254.493 204.308 253.503 203.905 252.769 203.098C252.051 202.291 251.691 201.272 251.691 200.04V193.286H254.243V199.578C254.243 200.297 254.419 200.883 254.771 201.338C255.123 201.793 255.666 202.02 256.399 202.02C257.118 202.02 257.668 201.8 258.049 201.36C258.445 200.92 258.643 200.341 258.643 199.622V193.286H261.195V202.042C261.195 202.687 261.232 203.34 261.305 204H258.863C258.805 203.677 258.775 203.281 258.775 202.812ZM267.029 204H264.499V193.286H266.941V194.65C267.234 194.122 267.674 193.711 268.261 193.418C268.862 193.125 269.478 192.978 270.109 192.978C270.827 192.978 271.473 193.139 272.045 193.462C272.617 193.785 273.042 194.254 273.321 194.87C274.069 193.609 275.227 192.978 276.797 192.978C277.853 192.978 278.747 193.323 279.481 194.012C280.214 194.701 280.581 195.713 280.581 197.048V204H278.117V197.466C278.117 196.806 277.941 196.278 277.589 195.882C277.251 195.471 276.738 195.266 276.049 195.266C275.389 195.266 274.853 195.493 274.443 195.948C274.032 196.403 273.827 196.967 273.827 197.642V204H271.319V197.466C271.319 196.806 271.143 196.278 270.791 195.882C270.453 195.471 269.94 195.266 269.251 195.266C268.576 195.266 268.033 195.493 267.623 195.948C267.227 196.388 267.029 196.953 267.029 197.642V204Z" fill="white"/>
</svg>
