<svg width="376" height="316" viewBox="0 0 376 316" fill="none" xmlns="http://www.w3.org/2000/svg">
<path fill-rule="evenodd" clip-rule="evenodd" d="M272.11 35.2997C290.302 36.2313 304.762 45.426 319.223 55.7505C366.646 89.6551 382.507 142.26 350.01 193.954C299.477 274.118 181.772 326.584 90.5008 302.37C70.2875 297.034 42.9216 292.331 22.8637 266.271C4.20518 242.041 4.98262 213.236 13.5344 186.568C22.2418 159.226 39.0344 134.061 52.4064 117.884C110.87 47.308 227.952 -16.8364 333.839 16.98C336.016 17.6315 338.193 16.511 338.815 14.4774C339.437 12.4438 338.348 10.2631 336.326 9.61156C227.329 -25.1907 106.515 40.3311 46.3417 112.964C29.7046 133.135 7.9375 166.806 1.71799 201.644C-2.48018 225.455 0.47348 249.795 16.6442 270.968C37.946 298.727 67.0225 304.164 88.4798 309.847C182.705 334.856 304.451 280.856 356.54 198.063C391.524 142.502 374.732 85.9067 323.732 49.4639C308.184 38.2619 292.323 28.5812 272.576 27.5722C270.399 27.4623 268.534 29.1044 268.534 31.237C268.379 33.3697 270.089 35.1898 272.11 35.2997Z" fill="white"/>
<path d="M80.0606 162H69.7166V144.984H80.0606V147.168H72.0686V152.4H79.3166V154.608H72.0686V159.816H80.0606V162ZM82.3504 158.904C82.3504 157.912 82.6704 157.12 83.3104 156.528C83.9504 155.92 84.7984 155.544 85.8544 155.4L88.9744 154.944C89.5664 154.864 89.8624 154.576 89.8624 154.08C89.8624 153.472 89.6544 152.976 89.2384 152.592C88.8224 152.208 88.1984 152.016 87.3664 152.016C86.5984 152.016 85.9904 152.232 85.5424 152.664C85.0944 153.08 84.8304 153.64 84.7504 154.344L82.5904 153.84C82.7024 152.736 83.2064 151.84 84.1024 151.152C84.9984 150.448 86.0704 150.096 87.3184 150.096C88.9504 150.096 90.1584 150.496 90.9424 151.296C91.7264 152.08 92.1184 153.088 92.1184 154.32V160.104C92.1184 160.792 92.1664 161.424 92.2624 162H90.0544C89.9744 161.52 89.9344 161 89.9344 160.44C89.6144 160.952 89.1424 161.4 88.5184 161.784C87.9104 162.168 87.1424 162.36 86.2144 162.36C85.0784 162.36 84.1504 162.024 83.4304 161.352C82.7104 160.664 82.3504 159.848 82.3504 158.904ZM86.5264 160.464C87.5344 160.464 88.3424 160.192 88.9504 159.648C89.5584 159.104 89.8624 158.24 89.8624 157.056V156.528L86.3344 157.056C85.8224 157.136 85.4144 157.32 85.1104 157.608C84.8064 157.896 84.6544 158.288 84.6544 158.784C84.6544 159.232 84.8224 159.624 85.1584 159.96C85.5104 160.296 85.9664 160.464 86.5264 160.464ZM102.041 150.336V152.736C101.705 152.688 101.377 152.664 101.057 152.664C98.9449 152.664 97.8889 153.848 97.8889 156.216V162H95.6329V150.456H97.8409V152.472C98.5449 151 99.6969 150.264 101.297 150.264C101.553 150.264 101.801 150.288 102.041 150.336ZM106.701 155.328V162H104.445V150.456H106.653V152.112C107.421 150.784 108.605 150.12 110.205 150.12C111.533 150.12 112.549 150.544 113.253 151.392C113.973 152.24 114.333 153.336 114.333 154.68V162H112.077V155.064C112.077 153.128 111.181 152.16 109.389 152.16C108.541 152.16 107.877 152.464 107.397 153.072C106.933 153.664 106.701 154.416 106.701 155.328ZM131.53 160.608C131.226 161.184 130.762 161.624 130.138 161.928C129.514 162.216 128.842 162.36 128.122 162.36C126.81 162.36 125.762 161.928 124.978 161.064C124.194 160.184 123.802 159.072 123.802 157.728V150.456H126.058V157.392C126.058 158.256 126.266 158.968 126.682 159.528C127.114 160.088 127.778 160.368 128.674 160.368C129.57 160.368 130.25 160.104 130.714 159.576C131.178 159.032 131.41 158.312 131.41 157.416V150.456H133.666V159.864C133.666 160.616 133.706 161.328 133.786 162H131.626C131.562 161.648 131.53 161.184 131.53 160.608ZM139.748 166.56H137.516V150.456H139.7V152.256C140.036 151.648 140.54 151.152 141.212 150.768C141.884 150.384 142.668 150.192 143.564 150.192C145.228 150.192 146.524 150.76 147.452 151.896C148.396 153.032 148.868 154.472 148.868 156.216C148.868 157.976 148.38 159.432 147.404 160.584C146.444 161.736 145.14 162.312 143.492 162.312C142.644 162.312 141.892 162.136 141.236 161.784C140.58 161.432 140.084 160.984 139.748 160.44V166.56ZM146.564 156.216C146.564 155.048 146.252 154.088 145.628 153.336C145.02 152.568 144.196 152.184 143.156 152.184C142.132 152.184 141.3 152.568 140.66 153.336C140.036 154.088 139.724 155.048 139.724 156.216C139.724 157.416 140.036 158.4 140.66 159.168C141.3 159.92 142.132 160.296 143.156 160.296C144.18 160.296 145.004 159.92 145.628 159.168C146.252 158.4 146.564 157.416 146.564 156.216ZM160.766 146.808V150.456H163.262V152.496H160.766V158.496C160.766 159.04 160.886 159.44 161.126 159.696C161.382 159.952 161.798 160.08 162.374 160.08C162.71 160.08 163.006 160.048 163.262 159.984V161.904C162.878 162.048 162.366 162.12 161.726 162.12C160.734 162.12 159.95 161.832 159.374 161.256C158.798 160.68 158.51 159.872 158.51 158.832V152.496H156.302V150.456H156.926C157.518 150.456 157.958 150.296 158.246 149.976C158.55 149.64 158.702 149.208 158.702 148.68V146.808H160.766ZM168.532 159.264C169.236 159.984 170.092 160.344 171.1 160.344C172.108 160.344 172.956 159.984 173.644 159.264C174.348 158.528 174.7 157.512 174.7 156.216C174.7 154.936 174.348 153.936 173.644 153.216C172.956 152.48 172.108 152.112 171.1 152.112C170.092 152.112 169.236 152.48 168.532 153.216C167.844 153.936 167.5 154.936 167.5 156.216C167.5 157.512 167.844 158.528 168.532 159.264ZM166.852 151.848C167.972 150.68 169.388 150.096 171.1 150.096C172.812 150.096 174.22 150.68 175.324 151.848C176.444 153 177.004 154.456 177.004 156.216C177.004 157.992 176.452 159.464 175.348 160.632C174.244 161.784 172.828 162.36 171.1 162.36C169.372 162.36 167.956 161.784 166.852 160.632C165.748 159.464 165.196 157.992 165.196 156.216C165.196 154.456 165.748 153 166.852 151.848ZM194.243 148.176L191.315 143.568L199.475 136.56H185.843V130.848H207.875V136.176L199.811 142.896C202.275 142.992 204.387 143.92 206.147 145.68C207.939 147.408 208.835 149.648 208.835 152.4C208.835 155.216 207.747 157.648 205.571 159.696C203.395 161.712 200.499 162.72 196.883 162.72C193.395 162.72 190.563 161.76 188.387 159.84C186.211 157.888 185.027 155.536 184.835 152.784L191.219 151.536C191.283 153.136 191.827 154.448 192.851 155.472C193.907 156.496 195.251 157.008 196.883 157.008C198.483 157.008 199.763 156.56 200.723 155.664C201.683 154.768 202.163 153.648 202.163 152.304C202.163 150.864 201.683 149.744 200.723 148.944C199.795 148.112 198.579 147.696 197.075 147.696C196.083 147.696 195.139 147.856 194.243 148.176ZM220.586 148.176L217.658 143.568L225.818 136.56H212.186V130.848H234.218V136.176L226.154 142.896C228.618 142.992 230.73 143.92 232.49 145.68C234.282 147.408 235.178 149.648 235.178 152.4C235.178 155.216 234.09 157.648 231.914 159.696C229.738 161.712 226.842 162.72 223.226 162.72C219.738 162.72 216.906 161.76 214.73 159.84C212.554 157.888 211.37 155.536 211.178 152.784L217.562 151.536C217.626 153.136 218.17 154.448 219.194 155.472C220.25 156.496 221.594 157.008 223.226 157.008C224.826 157.008 226.106 156.56 227.066 155.664C228.026 154.768 228.506 153.648 228.506 152.304C228.506 150.864 228.026 149.744 227.066 148.944C226.138 148.112 224.922 147.696 223.418 147.696C222.426 147.696 221.482 147.856 220.586 148.176ZM243.383 138.192C243.383 139.184 243.687 140 244.295 140.64C244.903 141.248 245.655 141.552 246.551 141.552C247.479 141.552 248.231 141.248 248.807 140.64C249.415 140 249.719 139.184 249.719 138.192C249.719 137.2 249.415 136.4 248.807 135.792C248.231 135.184 247.479 134.88 246.551 134.88C245.655 134.88 244.903 135.2 244.295 135.84C243.687 136.448 243.383 137.232 243.383 138.192ZM240.887 143.76C239.351 142.224 238.583 140.368 238.583 138.192C238.583 136.016 239.367 134.16 240.935 132.624C242.503 131.088 244.375 130.32 246.551 130.32C248.727 130.32 250.599 131.088 252.167 132.624C253.767 134.16 254.567 136.016 254.567 138.192C254.567 140.4 253.767 142.256 252.167 143.76C250.599 145.264 248.727 146.016 246.551 146.016C244.343 146.016 242.455 145.264 240.887 143.76ZM264.359 154.704C264.359 155.696 264.663 156.512 265.271 157.152C265.879 157.76 266.631 158.064 267.527 158.064C268.455 158.064 269.207 157.76 269.783 157.152C270.391 156.512 270.695 155.696 270.695 154.704C270.695 153.712 270.391 152.912 269.783 152.304C269.207 151.696 268.455 151.392 267.527 151.392C266.631 151.392 265.879 151.712 265.271 152.352C264.663 152.96 264.359 153.744 264.359 154.704ZM261.863 160.272C260.327 158.736 259.559 156.88 259.559 154.704C259.559 152.528 260.343 150.672 261.911 149.136C263.479 147.6 265.351 146.832 267.527 146.832C269.703 146.832 271.575 147.6 273.143 149.136C274.743 150.672 275.543 152.528 275.543 154.704C275.543 156.912 274.743 158.768 273.143 160.272C271.575 161.776 269.703 162.528 267.527 162.528C265.319 162.528 263.431 161.776 261.863 160.272ZM248.855 162H243.287L265.271 130.848H270.839L248.855 162ZM287.048 162H284.816V150.456H287.048V162ZM284.768 147.24C284.464 146.92 284.312 146.536 284.312 146.088C284.312 145.64 284.464 145.256 284.768 144.936C285.088 144.616 285.472 144.456 285.92 144.456C286.368 144.456 286.752 144.616 287.072 144.936C287.392 145.24 287.552 145.624 287.552 146.088C287.552 146.536 287.392 146.92 287.072 147.24C286.752 147.544 286.368 147.696 285.92 147.696C285.472 147.696 285.088 147.544 284.768 147.24ZM293.143 155.328V162H290.887V150.456H293.095V152.112C293.863 150.784 295.047 150.12 296.647 150.12C297.975 150.12 298.991 150.544 299.695 151.392C300.415 152.24 300.775 153.336 300.775 154.68V162H298.519V155.064C298.519 153.128 297.623 152.16 295.831 152.16C294.983 152.16 294.319 152.464 293.839 153.072C293.375 153.664 293.143 154.416 293.143 155.328ZM95.6686 194.36C93.3486 194.36 91.3566 193.56 89.6926 191.96C88.0446 190.36 87.2206 188.2 87.2206 185.48C87.2206 183.656 87.6366 182.056 88.4686 180.68C89.3006 179.304 90.3486 178.288 91.6126 177.632C92.8766 176.96 94.2286 176.624 95.6686 176.624C97.5886 176.624 99.2046 177.112 100.517 178.088C101.845 179.048 102.725 180.36 103.157 182.024L100.973 182.792C100.653 181.512 100.037 180.528 99.1246 179.84C98.2126 179.136 97.0606 178.784 95.6686 178.784C94.0046 178.784 92.5806 179.376 91.3966 180.56C90.2126 181.728 89.6206 183.368 89.6206 185.48C89.6206 187.592 90.2126 189.24 91.3966 190.424C92.5806 191.608 94.0046 192.2 95.6686 192.2C97.0606 192.2 98.2206 191.832 99.1486 191.096C100.077 190.344 100.725 189.352 101.093 188.12L103.181 188.888C102.717 190.536 101.821 191.864 100.493 192.872C99.1806 193.864 97.5726 194.36 95.6686 194.36ZM104.872 190.904C104.872 189.912 105.192 189.12 105.832 188.528C106.472 187.92 107.32 187.544 108.376 187.4L111.496 186.944C112.088 186.864 112.384 186.576 112.384 186.08C112.384 185.472 112.176 184.976 111.76 184.592C111.344 184.208 110.72 184.016 109.888 184.016C109.12 184.016 108.512 184.232 108.064 184.664C107.616 185.08 107.352 185.64 107.272 186.344L105.112 185.84C105.224 184.736 105.728 183.84 106.624 183.152C107.52 182.448 108.592 182.096 109.84 182.096C111.472 182.096 112.68 182.496 113.464 183.296C114.248 184.08 114.64 185.088 114.64 186.32V192.104C114.64 192.792 114.688 193.424 114.784 194H112.576C112.496 193.52 112.456 193 112.456 192.44C112.136 192.952 111.664 193.4 111.04 193.784C110.432 194.168 109.664 194.36 108.736 194.36C107.6 194.36 106.672 194.024 105.952 193.352C105.232 192.664 104.872 191.848 104.872 190.904ZM109.048 192.464C110.056 192.464 110.864 192.192 111.472 191.648C112.08 191.104 112.384 190.24 112.384 189.056V188.528L108.856 189.056C108.344 189.136 107.936 189.32 107.632 189.608C107.328 189.896 107.176 190.288 107.176 190.784C107.176 191.232 107.344 191.624 107.68 191.96C108.032 192.296 108.488 192.464 109.048 192.464ZM117.074 191L119.114 190.28C119.194 190.904 119.466 191.424 119.93 191.84C120.394 192.24 121.018 192.44 121.802 192.44C122.41 192.44 122.89 192.296 123.242 192.008C123.594 191.704 123.77 191.336 123.77 190.904C123.77 190.136 123.274 189.64 122.282 189.416L120.314 188.984C119.418 188.792 118.714 188.408 118.202 187.832C117.69 187.256 117.434 186.56 117.434 185.744C117.434 184.752 117.834 183.896 118.634 183.176C119.45 182.456 120.418 182.096 121.538 182.096C122.274 182.096 122.93 182.208 123.506 182.432C124.082 182.64 124.53 182.92 124.85 183.272C125.17 183.624 125.41 183.952 125.57 184.256C125.73 184.56 125.85 184.872 125.93 185.192L123.938 185.936C123.906 185.744 123.85 185.56 123.77 185.384C123.69 185.192 123.562 184.984 123.386 184.76C123.226 184.536 122.986 184.36 122.666 184.232C122.346 184.088 121.97 184.016 121.538 184.016C120.978 184.016 120.514 184.168 120.146 184.472C119.794 184.776 119.618 185.136 119.618 185.552C119.618 186.288 120.058 186.752 120.938 186.944L122.81 187.352C123.834 187.576 124.618 187.992 125.162 188.6C125.722 189.192 126.002 189.92 126.002 190.784C126.002 191.696 125.626 192.52 124.874 193.256C124.138 193.992 123.106 194.36 121.778 194.36C120.354 194.36 119.242 194.008 118.442 193.304C117.642 192.584 117.186 191.816 117.074 191ZM131.262 187.208V194H129.006V176.624H131.262V183.8C132.03 182.68 133.198 182.12 134.766 182.12C136.094 182.12 137.11 182.544 137.814 183.392C138.534 184.24 138.894 185.336 138.894 186.68V194H136.638V187.064C136.638 185.128 135.742 184.16 133.95 184.16C133.118 184.16 132.47 184.448 132.006 185.024C131.542 185.584 131.294 186.312 131.262 187.208ZM154.435 190.976L159.619 176.984H162.091L155.539 194H153.211L146.803 176.984H149.299L154.435 190.976ZM162.223 190.904C162.223 189.912 162.543 189.12 163.183 188.528C163.823 187.92 164.671 187.544 165.727 187.4L168.847 186.944C169.439 186.864 169.735 186.576 169.735 186.08C169.735 185.472 169.527 184.976 169.111 184.592C168.695 184.208 168.071 184.016 167.239 184.016C166.471 184.016 165.863 184.232 165.415 184.664C164.967 185.08 164.703 185.64 164.623 186.344L162.463 185.84C162.575 184.736 163.079 183.84 163.975 183.152C164.871 182.448 165.943 182.096 167.191 182.096C168.823 182.096 170.031 182.496 170.815 183.296C171.599 184.08 171.991 185.088 171.991 186.32V192.104C171.991 192.792 172.039 193.424 172.135 194H169.927C169.847 193.52 169.807 193 169.807 192.44C169.487 192.952 169.015 193.4 168.391 193.784C167.783 194.168 167.015 194.36 166.087 194.36C164.951 194.36 164.023 194.024 163.303 193.352C162.583 192.664 162.223 191.848 162.223 190.904ZM166.399 192.464C167.407 192.464 168.215 192.192 168.823 191.648C169.431 191.104 169.735 190.24 169.735 189.056V188.528L166.207 189.056C165.695 189.136 165.287 189.32 164.983 189.608C164.679 189.896 164.527 190.288 164.527 190.784C164.527 191.232 164.695 191.624 165.031 191.96C165.383 192.296 165.839 192.464 166.399 192.464ZM177.762 194H175.506V176.624H177.762V194ZM189.091 192.608C188.787 193.184 188.323 193.624 187.699 193.928C187.075 194.216 186.403 194.36 185.683 194.36C184.371 194.36 183.323 193.928 182.539 193.064C181.755 192.184 181.363 191.072 181.363 189.728V182.456H183.619V189.392C183.619 190.256 183.827 190.968 184.243 191.528C184.675 192.088 185.339 192.368 186.235 192.368C187.131 192.368 187.811 192.104 188.275 191.576C188.739 191.032 188.971 190.312 188.971 189.416V182.456H191.227V191.864C191.227 192.616 191.267 193.328 191.347 194H189.187C189.123 193.648 189.091 193.184 189.091 192.608ZM196.423 187.04H202.735C202.703 186.176 202.415 185.472 201.871 184.928C201.327 184.368 200.559 184.088 199.567 184.088C198.671 184.088 197.935 184.384 197.359 184.976C196.783 185.552 196.471 186.24 196.423 187.04ZM203.071 190.04L205.015 190.712C204.679 191.784 204.055 192.664 203.143 193.352C202.231 194.024 201.127 194.36 199.831 194.36C198.215 194.36 196.839 193.808 195.703 192.704C194.583 191.584 194.023 190.08 194.023 188.192C194.023 186.432 194.567 184.976 195.655 183.824C196.743 182.672 198.039 182.096 199.543 182.096C201.287 182.096 202.647 182.648 203.623 183.752C204.599 184.84 205.087 186.304 205.087 188.144C205.087 188.432 205.071 188.672 205.039 188.864H196.351C196.367 189.888 196.703 190.728 197.359 191.384C198.031 192.04 198.855 192.368 199.831 192.368C201.479 192.368 202.559 191.592 203.071 190.04ZM223.015 194L219.127 187.04H216.583V194H214.207V176.984H220.615C222.183 176.984 223.439 177.472 224.383 178.448C225.343 179.408 225.823 180.608 225.823 182.048C225.823 183.28 225.455 184.336 224.719 185.216C223.983 186.08 222.975 186.632 221.695 186.872L225.751 194H223.015ZM216.583 184.928H220.183C221.143 184.928 221.919 184.672 222.511 184.16C223.103 183.632 223.399 182.928 223.399 182.048C223.399 181.152 223.103 180.44 222.511 179.912C221.919 179.368 221.143 179.096 220.183 179.096H216.583V184.928ZM229.822 187.04H236.134C236.102 186.176 235.814 185.472 235.27 184.928C234.726 184.368 233.958 184.088 232.966 184.088C232.07 184.088 231.334 184.384 230.758 184.976C230.182 185.552 229.87 186.24 229.822 187.04ZM236.47 190.04L238.414 190.712C238.078 191.784 237.454 192.664 236.542 193.352C235.63 194.024 234.526 194.36 233.23 194.36C231.614 194.36 230.238 193.808 229.102 192.704C227.982 191.584 227.422 190.08 227.422 188.192C227.422 186.432 227.966 184.976 229.054 183.824C230.142 182.672 231.438 182.096 232.942 182.096C234.686 182.096 236.046 182.648 237.022 183.752C237.998 184.84 238.486 186.304 238.486 188.144C238.486 188.432 238.47 188.672 238.438 188.864H229.75C229.766 189.888 230.102 190.728 230.758 191.384C231.43 192.04 232.254 192.368 233.23 192.368C234.878 192.368 235.958 191.592 236.47 190.04ZM244.389 178.808V182.456H246.885V184.496H244.389V190.496C244.389 191.04 244.509 191.44 244.749 191.696C245.005 191.952 245.421 192.08 245.997 192.08C246.333 192.08 246.629 192.048 246.885 191.984V193.904C246.501 194.048 245.989 194.12 245.349 194.12C244.357 194.12 243.573 193.832 242.997 193.256C242.421 192.68 242.133 191.872 242.133 190.832V184.496H239.925V182.456H240.549C241.141 182.456 241.581 182.296 241.869 181.976C242.173 181.64 242.325 181.208 242.325 180.68V178.808H244.389ZM257.505 192.608C257.201 193.184 256.737 193.624 256.113 193.928C255.489 194.216 254.817 194.36 254.097 194.36C252.785 194.36 251.737 193.928 250.953 193.064C250.169 192.184 249.777 191.072 249.777 189.728V182.456H252.033V189.392C252.033 190.256 252.241 190.968 252.657 191.528C253.089 192.088 253.753 192.368 254.649 192.368C255.545 192.368 256.225 192.104 256.689 191.576C257.153 191.032 257.385 190.312 257.385 189.416V182.456H259.641V191.864C259.641 192.616 259.681 193.328 259.761 194H257.601C257.537 193.648 257.505 193.184 257.505 192.608ZM269.898 182.336V184.736C269.562 184.688 269.234 184.664 268.914 184.664C266.802 184.664 265.746 185.848 265.746 188.216V194H263.49V182.456H265.698V184.472C266.402 183 267.554 182.264 269.154 182.264C269.41 182.264 269.658 182.288 269.898 182.336ZM274.559 187.328V194H272.303V182.456H274.511V184.112C275.279 182.784 276.463 182.12 278.063 182.12C279.391 182.12 280.407 182.544 281.111 183.392C281.831 184.24 282.191 185.336 282.191 186.68V194H279.935V187.064C279.935 185.128 279.039 184.16 277.247 184.16C276.399 184.16 275.735 184.464 275.255 185.072C274.791 185.664 274.559 186.416 274.559 187.328ZM97.1364 230.56H94.9044V214.456H97.0884V216.256C97.4244 215.648 97.9284 215.152 98.6004 214.768C99.2724 214.384 100.056 214.192 100.952 214.192C102.616 214.192 103.912 214.76 104.84 215.896C105.784 217.032 106.256 218.472 106.256 220.216C106.256 221.976 105.768 223.432 104.792 224.584C103.832 225.736 102.528 226.312 100.88 226.312C100.032 226.312 99.2804 226.136 98.6244 225.784C97.9684 225.432 97.4724 224.984 97.1364 224.44V230.56ZM103.952 220.216C103.952 219.048 103.64 218.088 103.016 217.336C102.408 216.568 101.584 216.184 100.544 216.184C99.5204 216.184 98.6884 216.568 98.0484 217.336C97.4244 218.088 97.1124 219.048 97.1124 220.216C97.1124 221.416 97.4244 222.4 98.0484 223.168C98.6884 223.92 99.5204 224.296 100.544 224.296C101.568 224.296 102.392 223.92 103.016 223.168C103.64 222.4 103.952 221.416 103.952 220.216ZM110.595 219.04H116.907C116.875 218.176 116.587 217.472 116.043 216.928C115.499 216.368 114.731 216.088 113.739 216.088C112.843 216.088 112.107 216.384 111.531 216.976C110.955 217.552 110.643 218.24 110.595 219.04ZM117.243 222.04L119.187 222.712C118.851 223.784 118.227 224.664 117.315 225.352C116.403 226.024 115.299 226.36 114.003 226.36C112.387 226.36 111.011 225.808 109.875 224.704C108.755 223.584 108.195 222.08 108.195 220.192C108.195 218.432 108.739 216.976 109.827 215.824C110.915 214.672 112.211 214.096 113.715 214.096C115.459 214.096 116.819 214.648 117.795 215.752C118.771 216.84 119.259 218.304 119.259 220.144C119.259 220.432 119.243 220.672 119.211 220.864H110.523C110.539 221.888 110.875 222.728 111.531 223.384C112.203 224.04 113.027 224.368 114.003 224.368C115.651 224.368 116.731 223.592 117.243 222.04ZM128.547 214.336V216.736C128.211 216.688 127.883 216.664 127.563 216.664C125.451 216.664 124.395 217.848 124.395 220.216V226H122.139V214.456H124.347V216.472C125.051 215 126.203 214.264 127.803 214.264C128.059 214.264 128.307 214.288 128.547 214.336ZM136.231 222.904C136.231 221.912 136.551 221.12 137.191 220.528C137.831 219.92 138.679 219.544 139.735 219.4L142.855 218.944C143.447 218.864 143.743 218.576 143.743 218.08C143.743 217.472 143.535 216.976 143.119 216.592C142.703 216.208 142.079 216.016 141.247 216.016C140.479 216.016 139.871 216.232 139.423 216.664C138.975 217.08 138.711 217.64 138.631 218.344L136.471 217.84C136.583 216.736 137.087 215.84 137.983 215.152C138.879 214.448 139.951 214.096 141.199 214.096C142.831 214.096 144.039 214.496 144.823 215.296C145.607 216.08 145.999 217.088 145.999 218.32V224.104C145.999 224.792 146.047 225.424 146.143 226H143.935C143.855 225.52 143.815 225 143.815 224.44C143.495 224.952 143.023 225.4 142.399 225.784C141.791 226.168 141.023 226.36 140.095 226.36C138.959 226.36 138.031 226.024 137.311 225.352C136.591 224.664 136.231 223.848 136.231 222.904ZM140.407 224.464C141.415 224.464 142.223 224.192 142.831 223.648C143.439 223.104 143.743 222.24 143.743 221.056V220.528L140.215 221.056C139.703 221.136 139.295 221.32 138.991 221.608C138.687 221.896 138.535 222.288 138.535 222.784C138.535 223.232 138.703 223.624 139.039 223.96C139.391 224.296 139.847 224.464 140.407 224.464ZM151.77 219.328V226H149.514V214.456H151.722V216.112C152.49 214.784 153.674 214.12 155.274 214.12C156.602 214.12 157.618 214.544 158.322 215.392C159.042 216.24 159.402 217.336 159.402 218.68V226H157.146V219.064C157.146 217.128 156.25 216.16 154.458 216.16C153.61 216.16 152.946 216.464 152.466 217.072C152.002 217.664 151.77 218.416 151.77 219.328ZM165.246 219.328V226H162.99V214.456H165.198V216.112C165.966 214.784 167.15 214.12 168.75 214.12C170.078 214.12 171.094 214.544 171.798 215.392C172.518 216.24 172.878 217.336 172.878 218.68V226H170.622V219.064C170.622 217.128 169.726 216.16 167.934 216.16C167.086 216.16 166.422 216.464 165.942 217.072C165.478 217.664 165.246 218.416 165.246 219.328ZM183.841 224.608C183.537 225.184 183.073 225.624 182.449 225.928C181.825 226.216 181.153 226.36 180.433 226.36C179.121 226.36 178.073 225.928 177.289 225.064C176.505 224.184 176.113 223.072 176.113 221.728V214.456H178.369V221.392C178.369 222.256 178.577 222.968 178.993 223.528C179.425 224.088 180.089 224.368 180.985 224.368C181.881 224.368 182.561 224.104 183.025 223.576C183.489 223.032 183.721 222.312 183.721 221.416V214.456H185.977V223.864C185.977 224.616 186.017 225.328 186.097 226H183.937C183.873 225.648 183.841 225.184 183.841 224.608ZM192.058 226H189.826V214.456H191.986V215.992C192.338 215.384 192.834 214.92 193.474 214.6C194.114 214.28 194.786 214.12 195.49 214.12C196.242 214.12 196.93 214.304 197.554 214.672C198.178 215.04 198.642 215.584 198.946 216.304C199.746 214.848 201.034 214.12 202.81 214.12C203.914 214.12 204.85 214.496 205.618 215.248C206.402 216 206.794 217.088 206.794 218.512V226H204.562V218.752C204.562 217.952 204.354 217.312 203.938 216.832C203.538 216.352 202.93 216.112 202.114 216.112C201.33 216.112 200.69 216.392 200.194 216.952C199.698 217.496 199.45 218.184 199.45 219.016V226H197.194V218.752C197.194 217.952 196.986 217.312 196.57 216.832C196.17 216.352 195.562 216.112 194.746 216.112C193.946 216.112 193.298 216.384 192.802 216.928C192.306 217.472 192.058 218.176 192.058 219.04V226ZM220.364 229.84C217.324 226.736 215.804 222.92 215.804 218.392C215.804 213.864 217.324 210.048 220.364 206.944L221.732 208.144C219.076 211.12 217.748 214.536 217.748 218.392C217.748 222.248 219.076 225.664 221.732 228.64L220.364 229.84ZM230.786 226.36C228.466 226.36 226.474 225.56 224.81 223.96C223.162 222.36 222.338 220.2 222.338 217.48C222.338 215.656 222.754 214.056 223.586 212.68C224.418 211.304 225.466 210.288 226.73 209.632C227.994 208.96 229.346 208.624 230.786 208.624C232.706 208.624 234.322 209.112 235.634 210.088C236.962 211.048 237.842 212.36 238.274 214.024L236.09 214.792C235.77 213.512 235.154 212.528 234.242 211.84C233.33 211.136 232.178 210.784 230.786 210.784C229.122 210.784 227.698 211.376 226.514 212.56C225.33 213.728 224.738 215.368 224.738 217.48C224.738 219.592 225.33 221.24 226.514 222.424C227.698 223.608 229.122 224.2 230.786 224.2C232.178 224.2 233.338 223.832 234.266 223.096C235.194 222.344 235.842 221.352 236.21 220.12L238.298 220.888C237.834 222.536 236.938 223.864 235.61 224.872C234.298 225.864 232.69 226.36 230.786 226.36ZM246.895 222.976L252.079 208.984H254.551L247.999 226H245.671L239.263 208.984H241.759L246.895 222.976ZM265.765 226L261.877 219.04H259.333V226H256.957V208.984H263.365C264.933 208.984 266.189 209.472 267.133 210.448C268.093 211.408 268.573 212.608 268.573 214.048C268.573 215.28 268.205 216.336 267.469 217.216C266.733 218.08 265.725 218.632 264.445 218.872L268.501 226H265.765ZM259.333 216.928H262.933C263.893 216.928 264.669 216.672 265.261 216.16C265.853 215.632 266.149 214.928 266.149 214.048C266.149 213.152 265.853 212.44 265.261 211.912C264.669 211.368 263.893 211.096 262.933 211.096H259.333V216.928ZM271.141 206.944C274.181 210.048 275.701 213.864 275.701 218.392C275.701 222.92 274.181 226.736 271.141 229.84L269.773 228.64C272.429 225.664 273.757 222.248 273.757 218.392C273.757 214.536 272.429 211.12 269.773 208.144L271.141 206.944Z" fill="white"/>
</svg>
