<svg width="376" height="316" viewBox="0 0 376 316" fill="none" xmlns="http://www.w3.org/2000/svg">
<path fill-rule="evenodd" clip-rule="evenodd" d="M272.11 35.2997C290.302 36.2313 304.762 45.426 319.223 55.7505C366.646 89.6551 382.507 142.26 350.01 193.954C299.477 274.118 181.772 326.584 90.5008 302.37C70.2874 297.034 42.9216 292.331 22.8637 266.271C4.20518 242.041 4.98262 213.236 13.5344 186.568C22.2418 159.226 39.0344 134.061 52.4064 117.884C110.87 47.308 227.952 -16.8364 333.839 16.98C336.016 17.6315 338.193 16.511 338.815 14.4774C339.437 12.4438 338.348 10.2631 336.326 9.61156C227.329 -25.1907 106.515 40.3311 46.3417 112.964C29.7046 133.135 7.9375 166.806 1.71799 201.644C-2.48018 225.455 0.47348 249.795 16.6442 270.968C37.946 298.727 67.0225 304.164 88.4798 309.847C182.705 334.856 304.451 280.856 356.54 198.063C391.524 142.502 374.732 85.9067 323.732 49.4639C308.184 38.2619 292.323 28.5812 272.576 27.5722C270.399 27.4623 268.534 29.1044 268.534 31.237C268.379 33.3697 270.089 35.1898 272.11 35.2997Z" fill="white"/>
<path d="M91.2032 162H80.8592V144.984H91.2032V147.168H83.2112V152.4H90.4592V154.608H83.2112V159.816H91.2032V162ZM93.493 158.904C93.493 157.912 93.813 157.12 94.453 156.528C95.093 155.92 95.941 155.544 96.997 155.4L100.117 154.944C100.709 154.864 101.005 154.576 101.005 154.08C101.005 153.472 100.797 152.976 100.381 152.592C99.965 152.208 99.341 152.016 98.509 152.016C97.741 152.016 97.133 152.232 96.685 152.664C96.237 153.08 95.973 153.64 95.893 154.344L93.733 153.84C93.845 152.736 94.349 151.84 95.245 151.152C96.141 150.448 97.213 150.096 98.461 150.096C100.093 150.096 101.301 150.496 102.085 151.296C102.869 152.08 103.261 153.088 103.261 154.32V160.104C103.261 160.792 103.309 161.424 103.405 162H101.197C101.117 161.52 101.077 161 101.077 160.44C100.757 160.952 100.285 161.4 99.661 161.784C99.053 162.168 98.285 162.36 97.357 162.36C96.221 162.36 95.293 162.024 94.573 161.352C93.853 160.664 93.493 159.848 93.493 158.904ZM97.669 160.464C98.677 160.464 99.485 160.192 100.093 159.648C100.701 159.104 101.005 158.24 101.005 157.056V156.528L97.477 157.056C96.965 157.136 96.557 157.32 96.253 157.608C95.949 157.896 95.797 158.288 95.797 158.784C95.797 159.232 95.965 159.624 96.301 159.96C96.653 160.296 97.109 160.464 97.669 160.464ZM113.183 150.336V152.736C112.847 152.688 112.519 152.664 112.199 152.664C110.087 152.664 109.031 153.848 109.031 156.216V162H106.775V150.456H108.983V152.472C109.687 151 110.839 150.264 112.439 150.264C112.695 150.264 112.943 150.288 113.183 150.336ZM117.844 155.328V162H115.588V150.456H117.796V152.112C118.564 150.784 119.748 150.12 121.348 150.12C122.676 150.12 123.692 150.544 124.396 151.392C125.116 152.24 125.476 153.336 125.476 154.68V162H123.22V155.064C123.22 153.128 122.324 152.16 120.532 152.16C119.684 152.16 119.02 152.464 118.54 153.072C118.076 153.664 117.844 154.416 117.844 155.328ZM142.673 160.608C142.369 161.184 141.905 161.624 141.281 161.928C140.657 162.216 139.985 162.36 139.265 162.36C137.953 162.36 136.905 161.928 136.121 161.064C135.337 160.184 134.945 159.072 134.945 157.728V150.456H137.201V157.392C137.201 158.256 137.409 158.968 137.825 159.528C138.257 160.088 138.921 160.368 139.817 160.368C140.713 160.368 141.393 160.104 141.857 159.576C142.321 159.032 142.553 158.312 142.553 157.416V150.456H144.809V159.864C144.809 160.616 144.849 161.328 144.929 162H142.769C142.705 161.648 142.673 161.184 142.673 160.608ZM150.89 166.56H148.658V150.456H150.842V152.256C151.178 151.648 151.682 151.152 152.354 150.768C153.026 150.384 153.81 150.192 154.706 150.192C156.37 150.192 157.666 150.76 158.594 151.896C159.538 153.032 160.01 154.472 160.01 156.216C160.01 157.976 159.522 159.432 158.546 160.584C157.586 161.736 156.282 162.312 154.634 162.312C153.786 162.312 153.034 162.136 152.378 161.784C151.722 161.432 151.226 160.984 150.89 160.44V166.56ZM157.706 156.216C157.706 155.048 157.394 154.088 156.77 153.336C156.162 152.568 155.338 152.184 154.298 152.184C153.274 152.184 152.442 152.568 151.802 153.336C151.178 154.088 150.866 155.048 150.866 156.216C150.866 157.416 151.178 158.4 151.802 159.168C152.442 159.92 153.274 160.296 154.298 160.296C155.322 160.296 156.146 159.92 156.77 159.168C157.394 158.4 157.706 157.416 157.706 156.216ZM171.909 146.808V150.456H174.405V152.496H171.909V158.496C171.909 159.04 172.029 159.44 172.269 159.696C172.525 159.952 172.941 160.08 173.517 160.08C173.853 160.08 174.149 160.048 174.405 159.984V161.904C174.021 162.048 173.509 162.12 172.869 162.12C171.877 162.12 171.093 161.832 170.517 161.256C169.941 160.68 169.653 159.872 169.653 158.832V152.496H167.445V150.456H168.069C168.661 150.456 169.101 150.296 169.389 149.976C169.693 149.64 169.845 149.208 169.845 148.68V146.808H171.909ZM179.675 159.264C180.379 159.984 181.235 160.344 182.243 160.344C183.251 160.344 184.099 159.984 184.787 159.264C185.491 158.528 185.843 157.512 185.843 156.216C185.843 154.936 185.491 153.936 184.787 153.216C184.099 152.48 183.251 152.112 182.243 152.112C181.235 152.112 180.379 152.48 179.675 153.216C178.987 153.936 178.643 154.936 178.643 156.216C178.643 157.512 178.987 158.528 179.675 159.264ZM177.995 151.848C179.115 150.68 180.531 150.096 182.243 150.096C183.955 150.096 185.363 150.68 186.467 151.848C187.587 153 188.147 154.456 188.147 156.216C188.147 157.992 187.595 159.464 186.491 160.632C185.387 161.784 183.971 162.36 182.243 162.36C180.515 162.36 179.099 161.784 177.995 160.632C176.891 159.464 176.339 157.992 176.339 156.216C176.339 154.456 176.891 153 177.995 151.848ZM205.385 148.176L202.457 143.568L210.617 136.56H196.985V130.848H219.017V136.176L210.953 142.896C213.417 142.992 215.529 143.92 217.289 145.68C219.081 147.408 219.977 149.648 219.977 152.4C219.977 155.216 218.889 157.648 216.713 159.696C214.537 161.712 211.641 162.72 208.025 162.72C204.537 162.72 201.705 161.76 199.529 159.84C197.353 157.888 196.169 155.536 195.977 152.784L202.361 151.536C202.425 153.136 202.969 154.448 203.993 155.472C205.049 156.496 206.393 157.008 208.025 157.008C209.625 157.008 210.905 156.56 211.865 155.664C212.825 154.768 213.305 153.648 213.305 152.304C213.305 150.864 212.825 149.744 211.865 148.944C210.937 148.112 209.721 147.696 208.217 147.696C207.225 147.696 206.281 147.856 205.385 148.176ZM231.588 138.528C230.468 140.288 229.908 142.928 229.908 146.448C229.908 149.968 230.468 152.608 231.588 154.368C232.644 156.064 234.212 156.912 236.292 156.912C238.34 156.912 239.892 156.064 240.948 154.368C242.1 152.64 242.676 150 242.676 146.448C242.676 142.896 242.1 140.256 240.948 138.528C239.892 136.832 238.34 135.984 236.292 135.984C234.212 135.984 232.644 136.832 231.588 138.528ZM226.02 157.536C224.196 154.752 223.284 151.056 223.284 146.448C223.284 141.84 224.196 138.144 226.02 135.36C228.356 131.872 231.78 130.128 236.292 130.128C240.804 130.128 244.212 131.872 246.516 135.36C248.372 138.176 249.3 141.872 249.3 146.448C249.3 151.024 248.372 154.72 246.516 157.536C244.212 161.024 240.804 162.768 236.292 162.768C231.78 162.768 228.356 161.024 226.02 157.536ZM257.244 138.192C257.244 139.184 257.548 140 258.156 140.64C258.764 141.248 259.516 141.552 260.412 141.552C261.34 141.552 262.092 141.248 262.668 140.64C263.276 140 263.58 139.184 263.58 138.192C263.58 137.2 263.276 136.4 262.668 135.792C262.092 135.184 261.34 134.88 260.412 134.88C259.516 134.88 258.764 135.2 258.156 135.84C257.548 136.448 257.244 137.232 257.244 138.192ZM254.748 143.76C253.212 142.224 252.444 140.368 252.444 138.192C252.444 136.016 253.228 134.16 254.796 132.624C256.364 131.088 258.236 130.32 260.412 130.32C262.588 130.32 264.46 131.088 266.028 132.624C267.628 134.16 268.428 136.016 268.428 138.192C268.428 140.4 267.628 142.256 266.028 143.76C264.46 145.264 262.588 146.016 260.412 146.016C258.204 146.016 256.316 145.264 254.748 143.76ZM278.22 154.704C278.22 155.696 278.524 156.512 279.132 157.152C279.74 157.76 280.492 158.064 281.388 158.064C282.316 158.064 283.068 157.76 283.644 157.152C284.252 156.512 284.556 155.696 284.556 154.704C284.556 153.712 284.252 152.912 283.644 152.304C283.068 151.696 282.316 151.392 281.388 151.392C280.492 151.392 279.74 151.712 279.132 152.352C278.524 152.96 278.22 153.744 278.22 154.704ZM275.724 160.272C274.188 158.736 273.42 156.88 273.42 154.704C273.42 152.528 274.204 150.672 275.772 149.136C277.34 147.6 279.212 146.832 281.388 146.832C283.564 146.832 285.436 147.6 287.004 149.136C288.604 150.672 289.404 152.528 289.404 154.704C289.404 156.912 288.604 158.768 287.004 160.272C285.436 161.776 283.564 162.528 281.388 162.528C279.18 162.528 277.292 161.776 275.724 160.272ZM262.716 162H257.148L279.132 130.848H284.7L262.716 162ZM77.5192 194H75.2872V182.456H77.5192V194ZM75.2392 179.24C74.9352 178.92 74.7832 178.536 74.7832 178.088C74.7832 177.64 74.9352 177.256 75.2392 176.936C75.5592 176.616 75.9432 176.456 76.3912 176.456C76.8392 176.456 77.2232 176.616 77.5432 176.936C77.8632 177.24 78.0232 177.624 78.0232 178.088C78.0232 178.536 77.8632 178.92 77.5432 179.24C77.2232 179.544 76.8392 179.696 76.3912 179.696C75.9432 179.696 75.5592 179.544 75.2392 179.24ZM83.6135 187.328V194H81.3575V182.456H83.5655V184.112C84.3335 182.784 85.5175 182.12 87.1175 182.12C88.4455 182.12 89.4615 182.544 90.1655 183.392C90.8855 184.24 91.2455 185.336 91.2455 186.68V194H88.9895V187.064C88.9895 185.128 88.0935 184.16 86.3015 184.16C85.4535 184.16 84.7895 184.464 84.3095 185.072C83.8455 185.664 83.6135 186.416 83.6135 187.328ZM108.442 194.36C106.122 194.36 104.13 193.56 102.466 191.96C100.818 190.36 99.9941 188.2 99.9941 185.48C99.9941 183.656 100.41 182.056 101.242 180.68C102.074 179.304 103.122 178.288 104.386 177.632C105.65 176.96 107.002 176.624 108.442 176.624C110.362 176.624 111.978 177.112 113.29 178.088C114.618 179.048 115.498 180.36 115.93 182.024L113.746 182.792C113.426 181.512 112.81 180.528 111.898 179.84C110.986 179.136 109.834 178.784 108.442 178.784C106.778 178.784 105.354 179.376 104.17 180.56C102.986 181.728 102.394 183.368 102.394 185.48C102.394 187.592 102.986 189.24 104.17 190.424C105.354 191.608 106.778 192.2 108.442 192.2C109.834 192.2 110.994 191.832 111.922 191.096C112.85 190.344 113.498 189.352 113.866 188.12L115.954 188.888C115.49 190.536 114.594 191.864 113.266 192.872C111.954 193.864 110.346 194.36 108.442 194.36ZM117.645 190.904C117.645 189.912 117.965 189.12 118.605 188.528C119.245 187.92 120.093 187.544 121.149 187.4L124.269 186.944C124.861 186.864 125.157 186.576 125.157 186.08C125.157 185.472 124.949 184.976 124.533 184.592C124.117 184.208 123.493 184.016 122.661 184.016C121.893 184.016 121.285 184.232 120.837 184.664C120.389 185.08 120.125 185.64 120.045 186.344L117.885 185.84C117.997 184.736 118.501 183.84 119.397 183.152C120.293 182.448 121.365 182.096 122.613 182.096C124.245 182.096 125.453 182.496 126.237 183.296C127.021 184.08 127.413 185.088 127.413 186.32V192.104C127.413 192.792 127.461 193.424 127.557 194H125.349C125.269 193.52 125.229 193 125.229 192.44C124.909 192.952 124.437 193.4 123.813 193.784C123.205 194.168 122.437 194.36 121.509 194.36C120.373 194.36 119.445 194.024 118.725 193.352C118.005 192.664 117.645 191.848 117.645 190.904ZM121.821 192.464C122.829 192.464 123.637 192.192 124.245 191.648C124.853 191.104 125.157 190.24 125.157 189.056V188.528L121.629 189.056C121.117 189.136 120.709 189.32 120.405 189.608C120.101 189.896 119.949 190.288 119.949 190.784C119.949 191.232 120.117 191.624 120.453 191.96C120.805 192.296 121.261 192.464 121.821 192.464ZM129.848 191L131.888 190.28C131.968 190.904 132.24 191.424 132.704 191.84C133.168 192.24 133.792 192.44 134.576 192.44C135.184 192.44 135.664 192.296 136.016 192.008C136.368 191.704 136.544 191.336 136.544 190.904C136.544 190.136 136.048 189.64 135.056 189.416L133.088 188.984C132.192 188.792 131.488 188.408 130.976 187.832C130.464 187.256 130.208 186.56 130.208 185.744C130.208 184.752 130.608 183.896 131.408 183.176C132.224 182.456 133.192 182.096 134.312 182.096C135.048 182.096 135.704 182.208 136.28 182.432C136.856 182.64 137.304 182.92 137.624 183.272C137.944 183.624 138.184 183.952 138.344 184.256C138.504 184.56 138.624 184.872 138.704 185.192L136.712 185.936C136.68 185.744 136.624 185.56 136.544 185.384C136.464 185.192 136.336 184.984 136.16 184.76C136 184.536 135.76 184.36 135.44 184.232C135.12 184.088 134.744 184.016 134.312 184.016C133.752 184.016 133.288 184.168 132.92 184.472C132.568 184.776 132.392 185.136 132.392 185.552C132.392 186.288 132.832 186.752 133.712 186.944L135.584 187.352C136.608 187.576 137.392 187.992 137.936 188.6C138.496 189.192 138.776 189.92 138.776 190.784C138.776 191.696 138.4 192.52 137.648 193.256C136.912 193.992 135.88 194.36 134.552 194.36C133.128 194.36 132.016 194.008 131.216 193.304C130.416 192.584 129.96 191.816 129.848 191ZM144.035 187.208V194H141.779V176.624H144.035V183.8C144.803 182.68 145.971 182.12 147.539 182.12C148.867 182.12 149.883 182.544 150.587 183.392C151.307 184.24 151.667 185.336 151.667 186.68V194H149.411V187.064C149.411 185.128 148.515 184.16 146.723 184.16C145.891 184.16 145.243 184.448 144.779 185.024C144.315 185.584 144.067 186.312 144.035 187.208ZM167.208 190.976L172.392 176.984H174.864L168.312 194H165.984L159.576 176.984H162.072L167.208 190.976ZM174.997 190.904C174.997 189.912 175.317 189.12 175.957 188.528C176.597 187.92 177.445 187.544 178.501 187.4L181.621 186.944C182.213 186.864 182.509 186.576 182.509 186.08C182.509 185.472 182.301 184.976 181.885 184.592C181.469 184.208 180.845 184.016 180.013 184.016C179.245 184.016 178.637 184.232 178.189 184.664C177.741 185.08 177.477 185.64 177.397 186.344L175.237 185.84C175.349 184.736 175.853 183.84 176.749 183.152C177.645 182.448 178.717 182.096 179.965 182.096C181.597 182.096 182.805 182.496 183.589 183.296C184.373 184.08 184.765 185.088 184.765 186.32V192.104C184.765 192.792 184.813 193.424 184.909 194H182.701C182.621 193.52 182.581 193 182.581 192.44C182.261 192.952 181.789 193.4 181.165 193.784C180.557 194.168 179.789 194.36 178.861 194.36C177.725 194.36 176.797 194.024 176.077 193.352C175.357 192.664 174.997 191.848 174.997 190.904ZM179.173 192.464C180.181 192.464 180.989 192.192 181.597 191.648C182.205 191.104 182.509 190.24 182.509 189.056V188.528L178.981 189.056C178.469 189.136 178.061 189.32 177.757 189.608C177.453 189.896 177.301 190.288 177.301 190.784C177.301 191.232 177.469 191.624 177.805 191.96C178.157 192.296 178.613 192.464 179.173 192.464ZM190.535 194H188.279V176.624H190.535V194ZM201.864 192.608C201.56 193.184 201.096 193.624 200.472 193.928C199.848 194.216 199.176 194.36 198.456 194.36C197.144 194.36 196.096 193.928 195.312 193.064C194.528 192.184 194.136 191.072 194.136 189.728V182.456H196.392V189.392C196.392 190.256 196.6 190.968 197.016 191.528C197.448 192.088 198.112 192.368 199.008 192.368C199.904 192.368 200.584 192.104 201.048 191.576C201.512 191.032 201.744 190.312 201.744 189.416V182.456H204V191.864C204 192.616 204.04 193.328 204.12 194H201.96C201.896 193.648 201.864 193.184 201.864 192.608ZM209.197 187.04H215.509C215.477 186.176 215.189 185.472 214.645 184.928C214.101 184.368 213.333 184.088 212.341 184.088C211.445 184.088 210.709 184.384 210.133 184.976C209.557 185.552 209.245 186.24 209.197 187.04ZM215.845 190.04L217.789 190.712C217.453 191.784 216.829 192.664 215.917 193.352C215.005 194.024 213.901 194.36 212.605 194.36C210.989 194.36 209.613 193.808 208.477 192.704C207.357 191.584 206.797 190.08 206.797 188.192C206.797 186.432 207.341 184.976 208.429 183.824C209.517 182.672 210.813 182.096 212.317 182.096C214.061 182.096 215.421 182.648 216.397 183.752C217.373 184.84 217.861 186.304 217.861 188.144C217.861 188.432 217.845 188.672 217.812 188.864H209.125C209.141 189.888 209.477 190.728 210.133 191.384C210.805 192.04 211.629 192.368 212.605 192.368C214.253 192.368 215.333 191.592 215.845 190.04ZM235.788 194L231.9 187.04H229.356V194H226.98V176.984H233.388C234.956 176.984 236.212 177.472 237.156 178.448C238.116 179.408 238.596 180.608 238.596 182.048C238.596 183.28 238.228 184.336 237.492 185.216C236.756 186.08 235.748 186.632 234.468 186.872L238.524 194H235.788ZM229.356 184.928H232.956C233.916 184.928 234.692 184.672 235.284 184.16C235.876 183.632 236.172 182.928 236.172 182.048C236.172 181.152 235.876 180.44 235.284 179.912C234.692 179.368 233.916 179.096 232.956 179.096H229.356V184.928ZM242.595 187.04H248.907C248.875 186.176 248.587 185.472 248.043 184.928C247.499 184.368 246.731 184.088 245.739 184.088C244.843 184.088 244.107 184.384 243.531 184.976C242.955 185.552 242.643 186.24 242.595 187.04ZM249.243 190.04L251.187 190.712C250.851 191.784 250.227 192.664 249.315 193.352C248.403 194.024 247.299 194.36 246.003 194.36C244.387 194.36 243.011 193.808 241.875 192.704C240.755 191.584 240.195 190.08 240.195 188.192C240.195 186.432 240.739 184.976 241.827 183.824C242.915 182.672 244.211 182.096 245.715 182.096C247.459 182.096 248.819 182.648 249.795 183.752C250.771 184.84 251.259 186.304 251.259 188.144C251.259 188.432 251.243 188.672 251.211 188.864H242.523C242.539 189.888 242.875 190.728 243.531 191.384C244.203 192.04 245.027 192.368 246.003 192.368C247.651 192.368 248.731 191.592 249.243 190.04ZM257.163 178.808V182.456H259.659V184.496H257.163V190.496C257.163 191.04 257.283 191.44 257.523 191.696C257.779 191.952 258.195 192.08 258.771 192.08C259.107 192.08 259.403 192.048 259.659 191.984V193.904C259.275 194.048 258.763 194.12 258.123 194.12C257.131 194.12 256.347 193.832 255.771 193.256C255.195 192.68 254.907 191.872 254.907 190.832V184.496H252.699V182.456H253.323C253.915 182.456 254.355 182.296 254.643 181.976C254.947 181.64 255.099 181.208 255.099 180.68V178.808H257.163ZM270.278 192.608C269.974 193.184 269.51 193.624 268.886 193.928C268.262 194.216 267.59 194.36 266.87 194.36C265.558 194.36 264.51 193.928 263.726 193.064C262.942 192.184 262.55 191.072 262.55 189.728V182.456H264.806V189.392C264.806 190.256 265.014 190.968 265.43 191.528C265.862 192.088 266.526 192.368 267.422 192.368C268.318 192.368 268.998 192.104 269.462 191.576C269.926 191.032 270.158 190.312 270.158 189.416V182.456H272.414V191.864C272.414 192.616 272.454 193.328 272.534 194H270.374C270.31 193.648 270.278 193.184 270.278 192.608ZM282.672 182.336V184.736C282.336 184.688 282.008 184.664 281.688 184.664C279.576 184.664 278.52 185.848 278.52 188.216V194H276.264V182.456H278.472V184.472C279.176 183 280.328 182.264 281.928 182.264C282.184 182.264 282.432 182.288 282.672 182.336ZM287.332 187.328V194H285.076V182.456H287.284V184.112C288.052 182.784 289.236 182.12 290.836 182.12C292.164 182.12 293.18 182.544 293.884 183.392C294.604 184.24 294.964 185.336 294.964 186.68V194H292.708V187.064C292.708 185.128 291.812 184.16 290.02 184.16C289.172 184.16 288.508 184.464 288.028 185.072C287.564 185.664 287.332 186.416 287.332 187.328ZM97.1364 230.56H94.9044V214.456H97.0884V216.256C97.4244 215.648 97.9284 215.152 98.6004 214.768C99.2724 214.384 100.056 214.192 100.952 214.192C102.616 214.192 103.912 214.76 104.84 215.896C105.784 217.032 106.256 218.472 106.256 220.216C106.256 221.976 105.768 223.432 104.792 224.584C103.832 225.736 102.528 226.312 100.88 226.312C100.032 226.312 99.2804 226.136 98.6244 225.784C97.9684 225.432 97.4724 224.984 97.1364 224.44V230.56ZM103.952 220.216C103.952 219.048 103.64 218.088 103.016 217.336C102.408 216.568 101.584 216.184 100.544 216.184C99.5204 216.184 98.6884 216.568 98.0484 217.336C97.4244 218.088 97.1124 219.048 97.1124 220.216C97.1124 221.416 97.4244 222.4 98.0484 223.168C98.6884 223.92 99.5204 224.296 100.544 224.296C101.568 224.296 102.392 223.92 103.016 223.168C103.64 222.4 103.952 221.416 103.952 220.216ZM110.595 219.04H116.907C116.875 218.176 116.587 217.472 116.043 216.928C115.499 216.368 114.731 216.088 113.739 216.088C112.843 216.088 112.107 216.384 111.531 216.976C110.955 217.552 110.643 218.24 110.595 219.04ZM117.243 222.04L119.187 222.712C118.851 223.784 118.227 224.664 117.315 225.352C116.403 226.024 115.299 226.36 114.003 226.36C112.387 226.36 111.011 225.808 109.875 224.704C108.755 223.584 108.195 222.08 108.195 220.192C108.195 218.432 108.739 216.976 109.827 215.824C110.915 214.672 112.211 214.096 113.715 214.096C115.459 214.096 116.819 214.648 117.795 215.752C118.771 216.84 119.259 218.304 119.259 220.144C119.259 220.432 119.243 220.672 119.211 220.864H110.523C110.539 221.888 110.875 222.728 111.531 223.384C112.203 224.04 113.027 224.368 114.003 224.368C115.651 224.368 116.731 223.592 117.243 222.04ZM128.547 214.336V216.736C128.211 216.688 127.883 216.664 127.563 216.664C125.451 216.664 124.395 217.848 124.395 220.216V226H122.139V214.456H124.347V216.472C125.051 215 126.203 214.264 127.803 214.264C128.059 214.264 128.307 214.288 128.547 214.336ZM136.231 222.904C136.231 221.912 136.551 221.12 137.191 220.528C137.831 219.92 138.679 219.544 139.735 219.4L142.855 218.944C143.447 218.864 143.743 218.576 143.743 218.08C143.743 217.472 143.535 216.976 143.119 216.592C142.703 216.208 142.079 216.016 141.247 216.016C140.479 216.016 139.871 216.232 139.423 216.664C138.975 217.08 138.711 217.64 138.631 218.344L136.471 217.84C136.583 216.736 137.087 215.84 137.983 215.152C138.879 214.448 139.951 214.096 141.199 214.096C142.831 214.096 144.039 214.496 144.823 215.296C145.607 216.08 145.999 217.088 145.999 218.32V224.104C145.999 224.792 146.047 225.424 146.143 226H143.935C143.855 225.52 143.815 225 143.815 224.44C143.495 224.952 143.023 225.4 142.399 225.784C141.791 226.168 141.023 226.36 140.095 226.36C138.959 226.36 138.031 226.024 137.311 225.352C136.591 224.664 136.231 223.848 136.231 222.904ZM140.407 224.464C141.415 224.464 142.223 224.192 142.831 223.648C143.439 223.104 143.743 222.24 143.743 221.056V220.528L140.215 221.056C139.703 221.136 139.295 221.32 138.991 221.608C138.687 221.896 138.535 222.288 138.535 222.784C138.535 223.232 138.703 223.624 139.039 223.96C139.391 224.296 139.847 224.464 140.407 224.464ZM151.77 219.328V226H149.514V214.456H151.722V216.112C152.49 214.784 153.674 214.12 155.274 214.12C156.602 214.12 157.618 214.544 158.322 215.392C159.042 216.24 159.402 217.336 159.402 218.68V226H157.146V219.064C157.146 217.128 156.25 216.16 154.458 216.16C153.61 216.16 152.946 216.464 152.466 217.072C152.002 217.664 151.77 218.416 151.77 219.328ZM165.246 219.328V226H162.99V214.456H165.198V216.112C165.966 214.784 167.15 214.12 168.75 214.12C170.078 214.12 171.094 214.544 171.798 215.392C172.518 216.24 172.878 217.336 172.878 218.68V226H170.622V219.064C170.622 217.128 169.726 216.16 167.934 216.16C167.086 216.16 166.422 216.464 165.942 217.072C165.478 217.664 165.246 218.416 165.246 219.328ZM183.841 224.608C183.537 225.184 183.073 225.624 182.449 225.928C181.825 226.216 181.153 226.36 180.433 226.36C179.121 226.36 178.073 225.928 177.289 225.064C176.505 224.184 176.113 223.072 176.113 221.728V214.456H178.369V221.392C178.369 222.256 178.577 222.968 178.993 223.528C179.425 224.088 180.089 224.368 180.985 224.368C181.881 224.368 182.561 224.104 183.025 223.576C183.489 223.032 183.721 222.312 183.721 221.416V214.456H185.977V223.864C185.977 224.616 186.017 225.328 186.097 226H183.937C183.873 225.648 183.841 225.184 183.841 224.608ZM192.058 226H189.826V214.456H191.986V215.992C192.338 215.384 192.834 214.92 193.474 214.6C194.114 214.28 194.786 214.12 195.49 214.12C196.242 214.12 196.93 214.304 197.554 214.672C198.178 215.04 198.642 215.584 198.946 216.304C199.746 214.848 201.034 214.12 202.81 214.12C203.914 214.12 204.85 214.496 205.618 215.248C206.402 216 206.794 217.088 206.794 218.512V226H204.562V218.752C204.562 217.952 204.354 217.312 203.938 216.832C203.538 216.352 202.93 216.112 202.114 216.112C201.33 216.112 200.69 216.392 200.194 216.952C199.698 217.496 199.45 218.184 199.45 219.016V226H197.194V218.752C197.194 217.952 196.986 217.312 196.57 216.832C196.17 216.352 195.562 216.112 194.746 216.112C193.946 216.112 193.298 216.384 192.802 216.928C192.306 217.472 192.058 218.176 192.058 219.04V226ZM220.364 229.84C217.324 226.736 215.804 222.92 215.804 218.392C215.804 213.864 217.324 210.048 220.364 206.944L221.732 208.144C219.076 211.12 217.748 214.536 217.748 218.392C217.748 222.248 219.076 225.664 221.732 228.64L220.364 229.84ZM230.786 226.36C228.466 226.36 226.474 225.56 224.81 223.96C223.162 222.36 222.338 220.2 222.338 217.48C222.338 215.656 222.754 214.056 223.586 212.68C224.418 211.304 225.466 210.288 226.73 209.632C227.994 208.96 229.346 208.624 230.786 208.624C232.706 208.624 234.322 209.112 235.634 210.088C236.962 211.048 237.842 212.36 238.274 214.024L236.09 214.792C235.77 213.512 235.154 212.528 234.242 211.84C233.33 211.136 232.178 210.784 230.786 210.784C229.122 210.784 227.698 211.376 226.514 212.56C225.33 213.728 224.738 215.368 224.738 217.48C224.738 219.592 225.33 221.24 226.514 222.424C227.698 223.608 229.122 224.2 230.786 224.2C232.178 224.2 233.338 223.832 234.266 223.096C235.194 222.344 235.842 221.352 236.21 220.12L238.298 220.888C237.834 222.536 236.938 223.864 235.61 224.872C234.298 225.864 232.69 226.36 230.786 226.36ZM246.895 222.976L252.079 208.984H254.551L247.999 226H245.671L239.263 208.984H241.759L246.895 222.976ZM265.765 226L261.877 219.04H259.333V226H256.957V208.984H263.365C264.933 208.984 266.189 209.472 267.133 210.448C268.093 211.408 268.573 212.608 268.573 214.048C268.573 215.28 268.205 216.336 267.469 217.216C266.733 218.08 265.725 218.632 264.445 218.872L268.501 226H265.765ZM259.333 216.928H262.933C263.893 216.928 264.669 216.672 265.261 216.16C265.853 215.632 266.149 214.928 266.149 214.048C266.149 213.152 265.853 212.44 265.261 211.912C264.669 211.368 263.893 211.096 262.933 211.096H259.333V216.928ZM271.141 206.944C274.181 210.048 275.701 213.864 275.701 218.392C275.701 222.92 274.181 226.736 271.141 229.84L269.773 228.64C272.429 225.664 273.757 222.248 273.757 218.392C273.757 214.536 272.429 211.12 269.773 208.144L271.141 206.944Z" fill="white"/>
</svg>
