<svg width="24" height="24" viewBox="0 0 24 24" fill="none" xmlns="http://www.w3.org/2000/svg">
<path d="M21.9783 11.41C21.6383 5.61001 16.3683 1.14002 10.2983 2.14002C6.11833 2.83002 2.76834 6.22 2.11834 10.4C1.73834 12.82 2.23836 15.11 3.32836 17L2.43835 20.31C2.23835 21.06 2.92833 21.74 3.66833 21.53L6.92834 20.63C8.40834 21.5 10.1383 22 11.9883 22C17.6283 22 22.3083 17.03 21.9783 11.41ZM16.8783 15.72C16.7883 15.9 16.6783 16.07 16.5383 16.23C16.2883 16.5 16.0183 16.7 15.7183 16.82C15.4183 16.95 15.0883 17.01 14.7383 17.01C14.2283 17.01 13.6783 16.89 13.1083 16.64C12.5283 16.39 11.9584 16.06 11.3884 15.65C10.8084 15.23 10.2683 14.76 9.74834 14.25C9.22834 13.73 8.76832 13.18 8.34832 12.61C7.93832 12.04 7.60834 11.47 7.36834 10.9C7.12834 10.33 7.00835 9.78002 7.00835 9.26002C7.00835 8.92002 7.06835 8.59002 7.18835 8.29002C7.30835 7.98002 7.49836 7.70002 7.76836 7.45002C8.08836 7.13002 8.43834 6.98002 8.80834 6.98002C8.94834 6.98002 9.08832 7.01002 9.21832 7.07002C9.34832 7.13002 9.46834 7.22001 9.55834 7.35001L10.7183 8.99C10.8083 9.12 10.8783 9.23 10.9183 9.34C10.9683 9.45 10.9883 9.55 10.9883 9.65C10.9883 9.77 10.9483 9.89002 10.8783 10.01C10.8083 10.13 10.7183 10.25 10.5983 10.37L10.2183 10.77C10.1583 10.83 10.1384 10.89 10.1384 10.97C10.1384 11.01 10.1483 11.05 10.1583 11.09C10.1783 11.13 10.1884 11.16 10.1984 11.19C10.2884 11.36 10.4483 11.57 10.6683 11.83C10.8983 12.09 11.1384 12.36 11.3984 12.62C11.6684 12.89 11.9284 13.13 12.1984 13.36C12.4584 13.58 12.6783 13.73 12.8483 13.82C12.8783 13.83 12.9083 13.85 12.9383 13.86C12.9783 13.88 13.0184 13.88 13.0684 13.88C13.1584 13.88 13.2184 13.85 13.2784 13.79L13.6583 13.41C13.7883 13.28 13.9084 13.19 14.0184 13.13C14.1384 13.06 14.2483 13.02 14.3783 13.02C14.4783 13.02 14.5783 13.04 14.6883 13.09C14.7983 13.14 14.9183 13.2 15.0383 13.29L16.6984 14.47C16.8284 14.56 16.9183 14.67 16.9783 14.79C17.0283 14.92 17.0583 15.04 17.0583 15.18C16.9983 15.35 16.9583 15.54 16.8783 15.72Z" fill="#00A451"/>
</svg>
